# Blender 4.5.0
# www.blender.org
mtllib drive.mtl
o Drive
v -8.884104 12.765801 47.919384
v -8.968569 12.790166 47.880836
v -8.976336 12.763454 47.880974
v -8.891871 12.739090 47.919521
v -8.905017 12.693886 47.919754
v -8.997551 12.720578 47.877522
v -9.005320 12.693867 47.877659
v -8.888172 12.660075 47.931122
v -8.838535 12.830763 47.930244
v -8.955683 12.864555 47.876781
v -8.963450 12.837844 47.876919
v -8.870916 12.811152 47.919151
v -8.805456 12.636215 47.968872
v -8.778422 12.628417 47.981209
v -8.662075 12.779861 48.010773
v -8.688705 12.787543 47.998623
v -8.782062 12.666532 47.974834
v -8.783161 12.679113 47.972771
v -8.784286 12.691730 47.970695
v -8.785430 12.704376 47.968605
v -8.786589 12.717045 47.966507
v -8.787757 12.729730 47.964405
v -8.788930 12.742424 47.962299
v -8.790101 12.755121 47.960190
v -8.791267 12.767815 47.958088
v -8.792421 12.780499 47.955990
v -8.793560 12.793166 47.953903
v -8.794676 12.805810 47.951824
v -8.795765 12.818426 47.949764
v -8.822530 12.826146 47.937550
v -8.694765 12.604285 48.019386
v -8.670152 12.597186 48.030617
v -8.620601 12.767580 48.029743
v -8.645214 12.774680 48.018509
v -8.619532 12.582266 48.053761
v -8.614182 12.587747 48.055309
v -8.609045 12.593229 48.056767
v -8.604137 12.598669 48.058132
v -8.599474 12.604024 48.059410
v -8.595069 12.609249 48.060593
v -8.590936 12.614304 48.061687
v -8.587090 12.619142 48.062683
v -8.583547 12.623721 48.063591
v -8.580320 12.627998 48.064400
v -8.577424 12.631931 48.065113
v -8.574875 12.635475 48.065735
v -8.572685 12.638587 48.066257
v -8.571678 12.638260 48.066723
v -8.570653 12.637934 48.067192
v -8.569611 12.637609 48.067673
v -8.568551 12.637282 48.068157
v -8.567475 12.636957 48.068649
v -8.566384 12.636630 48.069149
v -8.565279 12.636303 48.069656
v -8.564158 12.635974 48.070168
v -8.563025 12.635644 48.070686
v -8.561878 12.635311 48.071209
v -8.560719 12.634976 48.071739
v -8.559547 12.634638 48.072273
v -8.523233 12.624164 48.088844
v -8.541884 12.560027 48.089176
v -8.517406 12.552966 48.100346
v -8.467727 12.723801 48.099468
v -8.519776 12.738814 48.075714
v -8.522807 12.739682 48.074333
v -8.525776 12.740517 48.072979
v -8.528680 12.741316 48.071659
v -8.531516 12.742078 48.070374
v -8.534281 12.742799 48.069118
v -8.536971 12.743477 48.067905
v -8.539584 12.744109 48.066727
v -8.542115 12.744693 48.065590
v -8.544562 12.745226 48.064495
v -8.546922 12.745706 48.063446
v -8.549191 12.746130 48.062439
v -8.551364 12.746494 48.061481
v -8.558540 12.747252 48.058372
v -8.565145 12.747271 48.055599
v -8.571211 12.746535 48.053146
v -8.576767 12.745031 48.051006
v -8.581845 12.742745 48.049164
v -8.586479 12.739662 48.047611
v -8.590699 12.735767 48.046337
v -8.594537 12.731045 48.045326
v -8.598024 12.725482 48.044571
v -8.601192 12.719063 48.044060
v -8.604074 12.711773 48.043777
v -8.606698 12.703598 48.043713
v -8.608410 12.697111 48.043819
v -8.609662 12.691002 48.044071
v -8.610451 12.685264 48.044472
v -8.610775 12.679887 48.045017
v -8.610630 12.674867 48.045719
v -8.610016 12.670195 48.046570
v -8.608929 12.665863 48.047577
v -8.607366 12.661865 48.048740
v -8.605326 12.658194 48.050064
v -8.602806 12.654840 48.051548
v -8.599804 12.651799 48.053196
v -8.596316 12.649062 48.055008
v -8.596672 12.648604 48.054916
v -8.597034 12.648142 48.054825
v -8.597404 12.647674 48.054726
v -8.597782 12.647200 48.054630
v -8.598167 12.646718 48.054527
v -8.598561 12.646231 48.054424
v -8.598964 12.645735 48.054317
v -8.599375 12.645231 48.054211
v -8.599793 12.644719 48.054100
v -8.600222 12.644197 48.053986
v -8.600658 12.643667 48.053871
v -8.601105 12.643126 48.053753
v -8.603622 12.639959 48.053101
v -8.606358 12.636547 48.052383
v -8.609323 12.632897 48.051605
v -8.612534 12.629019 48.050751
v -8.616005 12.624919 48.049816
v -8.619753 12.620607 48.048790
v -8.623790 12.616091 48.047672
v -8.628133 12.611378 48.046448
v -8.632795 12.606476 48.045113
v -8.637794 12.601395 48.043663
v -8.643141 12.596141 48.042088
v -8.648852 12.590723 48.040379
v -8.584281 12.676013 48.056629
v -8.584603 12.676948 48.056377
v -8.584853 12.678041 48.056133
v -8.585022 12.679305 48.055901
v -8.585100 12.680750 48.055683
v -8.585076 12.682388 48.055485
v -8.584943 12.684229 48.055309
v -8.584688 12.686284 48.055153
v -8.584303 12.688565 48.055023
v -8.583778 12.691082 48.054924
v -8.583103 12.693847 48.054855
v -8.582269 12.696869 48.054821
v -8.580255 12.703141 48.054871
v -8.578131 12.708279 48.055107
v -8.575792 12.712348 48.055573
v -8.573133 12.715415 48.056297
v -8.570048 12.717546 48.057320
v -8.566432 12.718807 48.058678
v -8.562177 12.719264 48.060406
v -8.557178 12.718984 48.062538
v -8.551330 12.718033 48.065117
v -8.544526 12.716475 48.068169
v -8.536661 12.714379 48.071735
v -8.527630 12.711810 48.075851
v -8.500058 12.703856 48.088436
v -8.515380 12.651168 48.088707
v -8.551694 12.661643 48.072132
v -8.556291 12.662987 48.070034
v -8.560534 12.664268 48.068092
v -8.564424 12.665494 48.066303
v -8.567963 12.666672 48.064667
v -8.571154 12.667809 48.063183
v -8.573998 12.668912 48.061848
v -8.576498 12.669989 48.060661
v -8.578655 12.671046 48.059624
v -8.580472 12.672091 48.058727
v -8.581950 12.673132 48.057976
v -8.583091 12.674175 48.057365
v -8.583898 12.675227 48.056892
v -8.465377 12.628944 48.112518
v -8.466807 12.623564 48.112602
v -8.468092 12.618445 48.112713
v -8.469235 12.613636 48.112846
v -8.470241 12.609182 48.112991
v -8.471111 12.605131 48.113140
v -8.471852 12.601530 48.113289
v -8.472466 12.598425 48.113426
v -8.472955 12.595862 48.113544
v -8.473325 12.593891 48.113640
v -8.473578 12.592556 48.113705
v -8.473719 12.591905 48.113728
v -8.474657 12.583190 48.114441
v -8.474583 12.575193 48.115490
v -8.473481 12.567868 48.116886
v -8.471341 12.561165 48.118637
v -8.468149 12.555038 48.120754
v -8.463891 12.549440 48.123253
v -8.458555 12.544323 48.126144
v -8.452127 12.539639 48.129436
v -8.444595 12.535341 48.133144
v -8.435946 12.531383 48.137276
v -8.426167 12.527715 48.141850
v -8.415243 12.524292 48.146870
v -8.411699 12.523299 48.148483
v -8.407925 12.522299 48.150192
v -8.403920 12.521292 48.152000
v -8.399685 12.520275 48.153908
v -8.395217 12.519249 48.155914
v -8.390515 12.518212 48.158020
v -8.385581 12.517165 48.160221
v -8.380412 12.516107 48.162525
v -8.375008 12.515035 48.164932
v -8.369368 12.513949 48.167435
v -8.363490 12.512850 48.170044
v -8.357376 12.511735 48.172749
v -8.309574 12.676112 48.171906
v -8.315331 12.678459 48.169189
v -8.320880 12.680686 48.166580
v -8.326222 12.682794 48.164070
v -8.331360 12.684783 48.161659
v -8.336293 12.686653 48.159351
v -8.341023 12.688405 48.157143
v -8.345551 12.690040 48.155037
v -8.349875 12.691555 48.153027
v -8.354000 12.692954 48.151119
v -8.357925 12.694235 48.149307
v -8.361651 12.695399 48.147598
v -8.365180 12.696447 48.145985
v -8.380151 12.700231 48.139217
v -8.393362 12.702402 48.133400
v -8.404973 12.702957 48.128456
v -8.415143 12.701892 48.124321
v -8.424032 12.699203 48.120934
v -8.431800 12.694885 48.118221
v -8.438606 12.688934 48.116123
v -8.444610 12.681346 48.114567
v -8.449971 12.672117 48.113491
v -8.454850 12.661242 48.112827
v -8.459407 12.648718 48.112507
v -8.463799 12.634540 48.112469
v -8.445884 12.600897 48.124268
v -8.445396 12.602644 48.124249
v -8.444911 12.604504 48.124214
v -8.444424 12.606468 48.124168
v -8.443930 12.608528 48.124115
v -8.443424 12.610676 48.124054
v -8.442904 12.612903 48.123989
v -8.442362 12.615199 48.123924
v -8.441795 12.617558 48.123863
v -8.441199 12.619969 48.123806
v -8.440568 12.622426 48.123760
v -8.439898 12.624919 48.123722
v -8.439186 12.627439 48.123699
v -8.438437 12.629972 48.123692
v -8.437643 12.632571 48.123695
v -8.436806 12.635223 48.123711
v -8.435928 12.637918 48.123737
v -8.435012 12.640640 48.123775
v -8.434058 12.643379 48.123825
v -8.433071 12.646121 48.123890
v -8.432052 12.648854 48.123970
v -8.431002 12.651565 48.124069
v -8.429924 12.654242 48.124180
v -8.428821 12.656870 48.124310
v -8.427693 12.659439 48.124454
v -8.426040 12.662747 48.124729
v -8.424129 12.665745 48.125149
v -8.421883 12.668391 48.125755
v -8.419229 12.670649 48.126579
v -8.416090 12.672477 48.127666
v -8.412392 12.673836 48.129044
v -8.408056 12.674687 48.130756
v -8.403010 12.674991 48.132835
v -8.397178 12.674707 48.135319
v -8.390482 12.673797 48.138245
v -8.382848 12.672220 48.141647
v -8.374201 12.669938 48.145569
v -8.371549 12.669172 48.146778
v -8.369014 12.668435 48.147938
v -8.366555 12.667710 48.149059
v -8.364133 12.666981 48.150169
v -8.361706 12.666231 48.151283
v -8.359236 12.665442 48.152420
v -8.356680 12.664600 48.153599
v -8.354000 12.663688 48.154842
v -8.351155 12.662687 48.156162
v -8.348105 12.661583 48.157581
v -8.344810 12.660357 48.159122
v -8.341229 12.658996 48.160797
v -8.374904 12.543199 48.161392
v -8.377977 12.543822 48.160023
v -8.380995 12.544462 48.158676
v -8.383952 12.545115 48.157352
v -8.386847 12.545777 48.156052
v -8.389678 12.546448 48.154778
v -8.392441 12.547123 48.153534
v -8.395132 12.547802 48.152317
v -8.397751 12.548481 48.151131
v -8.400292 12.549157 48.149979
v -8.402756 12.549829 48.148861
v -8.405137 12.550494 48.147778
v -8.407433 12.551149 48.146729
v -8.415936 12.553769 48.142830
v -8.423267 12.556389 48.139420
v -8.429502 12.559037 48.136463
v -8.434712 12.561741 48.133934
v -8.438972 12.564528 48.131794
v -8.442351 12.567427 48.130005
v -8.444926 12.570463 48.128540
v -8.446768 12.573667 48.127357
v -8.447949 12.577065 48.126431
v -8.448545 12.580684 48.125721
v -8.448626 12.584553 48.125195
v -8.448265 12.588698 48.124817
v -8.448172 12.589626 48.124741
v -8.448084 12.590491 48.124664
v -8.447995 12.591312 48.124599
v -8.447900 12.592111 48.124538
v -8.447791 12.592904 48.124481
v -8.447663 12.593715 48.124432
v -8.447510 12.594561 48.124390
v -8.447325 12.595462 48.124352
v -8.447101 12.596438 48.124321
v -8.446834 12.597509 48.124298
v -8.446515 12.598696 48.124279
v -8.446140 12.600017 48.124271
v -8.899478 12.770460 47.956017
v -8.983942 12.794825 47.917469
v -8.991710 12.768113 47.917606
v -8.907246 12.743749 47.956154
v -8.920391 12.698545 47.956387
v -9.012925 12.725238 47.914154
v -9.020693 12.698526 47.914291
v -8.903545 12.664734 47.967754
v -8.853909 12.835423 47.966877
v -8.971056 12.869214 47.913414
v -8.978824 12.842503 47.913551
v -8.886290 12.815810 47.955784
v -8.820829 12.640874 48.005505
v -8.793796 12.633076 48.017841
v -8.677448 12.784521 48.047405
v -8.704079 12.792203 48.035255
v -8.797436 12.671191 48.011467
v -8.798534 12.683772 48.009403
v -8.799659 12.696389 48.007328
v -8.800803 12.709036 48.005238
v -8.801962 12.721704 48.003139
v -8.803131 12.734388 48.001038
v -8.804303 12.747083 47.998932
v -8.805475 12.759780 47.996822
v -8.806641 12.772473 47.994720
v -8.807796 12.785157 47.992622
v -8.808933 12.797825 47.990536
v -8.810050 12.810470 47.988457
v -8.811139 12.823085 47.986397
v -8.837904 12.830805 47.974182
v -8.710138 12.608945 48.056019
v -8.685526 12.601845 48.067249
v -8.635974 12.772239 48.066376
v -8.660587 12.779339 48.055141
v -8.634906 12.586925 48.090393
v -8.629555 12.592406 48.091942
v -8.624419 12.597888 48.093399
v -8.619512 12.603329 48.094765
v -8.614848 12.608683 48.096043
v -8.610442 12.613909 48.097225
v -8.606310 12.618962 48.098320
v -8.602464 12.623800 48.099316
v -8.598921 12.628380 48.100224
v -8.595694 12.632658 48.101032
v -8.592798 12.636590 48.101746
v -8.590248 12.640134 48.102367
v -8.588059 12.643247 48.102890
v -8.587051 12.642920 48.103355
v -8.586026 12.642592 48.103825
v -8.584984 12.642267 48.104305
v -8.583924 12.641942 48.104790
v -8.582850 12.641616 48.105282
v -8.581758 12.641290 48.105782
v -8.580652 12.640962 48.106289
v -8.579533 12.640634 48.106800
v -8.578399 12.640303 48.107319
v -8.577251 12.639971 48.107841
v -8.576092 12.639635 48.108372
v -8.574921 12.639297 48.108906
v -8.538607 12.628822 48.125477
v -8.557258 12.564686 48.125809
v -8.532780 12.557625 48.136978
v -8.483100 12.728459 48.136101
v -8.535151 12.743474 48.112347
v -8.538180 12.744341 48.110966
v -8.541149 12.745175 48.109612
v -8.544054 12.745975 48.108292
v -8.546890 12.746737 48.107006
v -8.549655 12.747458 48.105751
v -8.552345 12.748136 48.104538
v -8.554957 12.748768 48.103359
v -8.557489 12.749352 48.102222
v -8.559937 12.749886 48.101128
v -8.562296 12.750365 48.100079
v -8.564564 12.750789 48.099072
v -8.566738 12.751154 48.098114
v -8.573915 12.751911 48.095005
v -8.580520 12.751929 48.092232
v -8.586584 12.751194 48.089779
v -8.592140 12.749691 48.087639
v -8.597219 12.747405 48.085796
v -8.601853 12.744322 48.084244
v -8.606073 12.740426 48.082970
v -8.609911 12.735704 48.081959
v -8.613398 12.730141 48.081203
v -8.616566 12.723722 48.080692
v -8.619447 12.716432 48.080410
v -8.622071 12.708257 48.080345
v -8.623784 12.701770 48.080452
v -8.625036 12.695662 48.080704
v -8.625825 12.689922 48.081104
v -8.626148 12.684546 48.081650
v -8.626004 12.679525 48.082352
v -8.625389 12.674853 48.083202
v -8.624302 12.670522 48.084209
v -8.622740 12.666524 48.085373
v -8.620700 12.662852 48.086697
v -8.618180 12.659500 48.088181
v -8.615177 12.656459 48.089828
v -8.611691 12.653722 48.091640
v -8.612045 12.653264 48.091549
v -8.612408 12.652801 48.091457
v -8.612778 12.652332 48.091358
v -8.613155 12.651858 48.091263
v -8.613542 12.651378 48.091160
v -8.613935 12.650889 48.091057
v -8.614338 12.650393 48.090950
v -8.614748 12.649890 48.090843
v -8.615168 12.649378 48.090733
v -8.615596 12.648857 48.090618
v -8.616033 12.648326 48.090504
v -8.616478 12.647785 48.090385
v -8.618997 12.644618 48.089733
v -8.621731 12.641206 48.089016
v -8.624697 12.637556 48.088238
v -8.627908 12.633677 48.087383
v -8.631379 12.629579 48.086449
v -8.635126 12.625266 48.085423
v -8.639164 12.620749 48.084305
v -8.643507 12.616036 48.083080
v -8.648170 12.611135 48.081745
v -8.653167 12.606053 48.080296
v -8.658514 12.600800 48.078720
v -8.664226 12.595383 48.077011
v -8.599655 12.680673 48.093262
v -8.599977 12.681606 48.093010
v -8.600227 12.682700 48.092766
v -8.600396 12.683964 48.092533
v -8.600473 12.685410 48.092316
v -8.600451 12.687047 48.092117
v -8.600316 12.688889 48.091942
v -8.600061 12.690944 48.091785
v -8.599677 12.693224 48.091656
v -8.599152 12.695742 48.091557
v -8.598477 12.698505 48.091488
v -8.597642 12.701529 48.091454
v -8.595628 12.707800 48.091503
v -8.593505 12.712937 48.091740
v -8.591166 12.717007 48.092205
v -8.588508 12.720074 48.092930
v -8.585423 12.722205 48.093952
v -8.581805 12.723466 48.095310
v -8.577550 12.723924 48.097038
v -8.572552 12.723643 48.099171
v -8.566703 12.722692 48.101749
v -8.559899 12.721134 48.104801
v -8.552035 12.719038 48.108368
v -8.543003 12.716469 48.112484
v -8.515431 12.708516 48.125069
v -8.530754 12.655827 48.125340
v -8.567068 12.666302 48.108765
v -8.571665 12.667645 48.106667
v -8.575907 12.668927 48.104725
v -8.579797 12.670153 48.102936
v -8.583337 12.671330 48.101299
v -8.586528 12.672468 48.099815
v -8.589373 12.673571 48.098480
v -8.591872 12.674648 48.097294
v -8.594029 12.675706 48.096256
v -8.595846 12.676751 48.095360
v -8.597323 12.677792 48.094608
v -8.598465 12.678834 48.093998
v -8.599271 12.679887 48.093525
v -8.480751 12.633603 48.149151
v -8.482181 12.628222 48.149235
v -8.483465 12.623105 48.149345
v -8.484609 12.618296 48.149479
v -8.485614 12.613842 48.149624
v -8.486485 12.609791 48.149773
v -8.487226 12.606189 48.149921
v -8.487839 12.603084 48.150059
v -8.488329 12.600522 48.150177
v -8.488699 12.598550 48.150272
v -8.488952 12.597215 48.150337
v -8.489093 12.596564 48.150360
v -8.490031 12.587850 48.151073
v -8.489956 12.579853 48.152122
v -8.488855 12.572527 48.153519
v -8.486715 12.565825 48.155266
v -8.483522 12.559697 48.157387
v -8.479265 12.554099 48.159885
v -8.473928 12.548982 48.162777
v -8.467502 12.544298 48.166069
v -8.459970 12.540000 48.169777
v -8.451321 12.536041 48.173908
v -8.441541 12.532374 48.178482
v -8.430617 12.528951 48.183502
v -8.427073 12.527958 48.185116
v -8.423299 12.526958 48.186825
v -8.419294 12.525950 48.188633
v -8.415058 12.524934 48.190540
v -8.410590 12.523908 48.192547
v -8.405890 12.522872 48.194653
v -8.400955 12.521825 48.196854
v -8.395785 12.520765 48.199158
v -8.390382 12.519693 48.201565
v -8.384741 12.518608 48.204067
v -8.378864 12.517509 48.206676
v -8.372749 12.516395 48.209381
v -8.324948 12.680772 48.208538
v -8.330705 12.683118 48.205822
v -8.336253 12.685345 48.203213
v -8.341597 12.687453 48.200703
v -8.346734 12.689442 48.198292
v -8.351667 12.691312 48.195984
v -8.356397 12.693065 48.193775
v -8.360924 12.694698 48.191669
v -8.365250 12.696215 48.189659
v -8.369374 12.697613 48.187752
v -8.373299 12.698895 48.185940
v -8.377026 12.700059 48.184231
v -8.380553 12.701106 48.182617
v -8.395525 12.704889 48.175850
v -8.408736 12.707061 48.170033
v -8.420346 12.707616 48.165089
v -8.430516 12.706552 48.160954
v -8.439405 12.703862 48.157566
v -8.447173 12.699544 48.154854
v -8.453979 12.693593 48.152756
v -8.459984 12.686005 48.151199
v -8.465345 12.676776 48.150124
v -8.470224 12.665901 48.149460
v -8.474780 12.653377 48.149139
v -8.479173 12.639198 48.149101
v -8.461258 12.605556 48.160896
v -8.460770 12.607303 48.160881
v -8.460284 12.609163 48.160847
v -8.459797 12.611127 48.160801
v -8.459303 12.613188 48.160748
v -8.458798 12.615335 48.160686
v -8.458277 12.617561 48.160622
v -8.457735 12.619858 48.160557
v -8.457169 12.622216 48.160496
v -8.456573 12.624628 48.160439
v -8.455942 12.627085 48.160393
v -8.455273 12.629578 48.160355
v -8.454559 12.632098 48.160332
v -8.453811 12.634631 48.160324
v -8.453017 12.637230 48.160328
v -8.452180 12.639883 48.160343
v -8.451302 12.642577 48.160370
v -8.450385 12.645300 48.160408
v -8.449432 12.648038 48.160458
v -8.448445 12.650781 48.160522
v -8.447425 12.653513 48.160603
v -8.446376 12.656224 48.160702
v -8.445298 12.658900 48.160812
v -8.444195 12.661530 48.160942
v -8.443068 12.664099 48.161087
v -8.441414 12.667406 48.161362
v -8.439502 12.670403 48.161781
v -8.437257 12.673051 48.162388
v -8.434603 12.675308 48.163212
v -8.431464 12.677135 48.164299
v -8.427765 12.678495 48.165676
v -8.423430 12.679346 48.167389
v -8.418385 12.679649 48.169468
v -8.412551 12.679366 48.171951
v -8.405855 12.678455 48.174877
v -8.398222 12.676879 48.178280
v -8.389574 12.674598 48.182201
v -8.386923 12.673832 48.183411
v -8.384387 12.673095 48.184570
v -8.381928 12.672370 48.185692
v -8.379506 12.671640 48.186802
v -8.377080 12.670890 48.187916
v -8.374609 12.670101 48.189053
v -8.372054 12.669259 48.190231
v -8.369374 12.668346 48.191475
v -8.366529 12.667346 48.192795
v -8.363480 12.666242 48.194214
v -8.360184 12.665017 48.195755
v -8.356604 12.663655 48.197430
v -8.390278 12.547857 48.198025
v -8.393352 12.548482 48.196655
v -8.396368 12.549122 48.195309
v -8.399325 12.549774 48.193985
v -8.402221 12.550436 48.192684
v -8.405051 12.551106 48.191410
v -8.407814 12.551783 48.190166
v -8.410506 12.552461 48.188950
v -8.413124 12.553140 48.187763
v -8.415667 12.553816 48.186611
v -8.418129 12.554488 48.185493
v -8.420510 12.555153 48.184410
v -8.422807 12.555809 48.183361
v -8.431310 12.558428 48.179462
v -8.438642 12.561049 48.176052
v -8.444877 12.563696 48.173096
v -8.450087 12.566400 48.170567
v -8.454346 12.569187 48.168427
v -8.457726 12.572085 48.166637
v -8.460299 12.575123 48.165173
v -8.462141 12.578326 48.163990
v -8.463323 12.581723 48.163063
v -8.463918 12.585342 48.162354
v -8.463999 12.589211 48.161827
v -8.463639 12.593358 48.161449
v -8.463545 12.594285 48.161373
v -8.463457 12.595150 48.161297
v -8.463368 12.595971 48.161232
v -8.463273 12.596769 48.161171
v -8.463164 12.597564 48.161114
v -8.463037 12.598373 48.161064
v -8.462883 12.599219 48.161022
v -8.462698 12.600121 48.160984
v -8.462475 12.601097 48.160954
v -8.462207 12.602169 48.160931
v -8.461889 12.603354 48.160912
v -8.461514 12.604675 48.160904
v -8.480751 12.633603 48.149151
v -8.465377 12.628944 48.112518
v -8.482181 12.628222 48.149235
v -8.466807 12.623564 48.112602
v -8.483465 12.623105 48.149345
v -8.468092 12.618445 48.112713
v -8.484609 12.618296 48.149479
v -8.469235 12.613636 48.112846
v -8.485614 12.613842 48.149624
v -8.470241 12.609182 48.112991
v -8.486485 12.609791 48.149773
v -8.471111 12.605131 48.113140
v -8.487226 12.606189 48.149921
v -8.471852 12.601530 48.113289
v -8.487839 12.603084 48.150059
v -8.472466 12.598425 48.113426
v -8.488329 12.600522 48.150177
v -8.472955 12.595862 48.113544
v -8.488699 12.598550 48.150272
v -8.473325 12.593891 48.113640
v -8.488952 12.597215 48.150337
v -8.473578 12.592556 48.113705
v -8.489093 12.596564 48.150360
v -8.473719 12.591905 48.113728
v -8.490031 12.587850 48.151073
v -8.474657 12.583190 48.114441
v -8.489956 12.579853 48.152122
v -8.474583 12.575193 48.115490
v -8.488855 12.572527 48.153519
v -8.473481 12.567868 48.116886
v -8.486715 12.565825 48.155266
v -8.471341 12.561165 48.118637
v -8.483522 12.559697 48.157387
v -8.468149 12.555038 48.120754
v -8.479265 12.554099 48.159885
v -8.463891 12.549440 48.123253
v -8.473928 12.548982 48.162777
v -8.458555 12.544323 48.126144
v -8.467502 12.544298 48.166069
v -8.452127 12.539639 48.129436
v -8.459970 12.540000 48.169777
v -8.444595 12.535341 48.133144
v -8.451321 12.536041 48.173908
v -8.435946 12.531383 48.137276
v -8.441541 12.532374 48.178482
v -8.426167 12.527715 48.141850
v -8.430617 12.528951 48.183502
v -8.415243 12.524292 48.146870
v -8.427073 12.527958 48.185116
v -8.411699 12.523299 48.148483
v -8.423299 12.526958 48.186825
v -8.407925 12.522299 48.150192
v -8.419294 12.525950 48.188633
v -8.403920 12.521292 48.152000
v -8.415058 12.524934 48.190540
v -8.399685 12.520275 48.153908
v -8.410590 12.523908 48.192547
v -8.395217 12.519249 48.155914
v -8.405890 12.522872 48.194653
v -8.390515 12.518212 48.158020
v -8.400955 12.521825 48.196854
v -8.385581 12.517165 48.160221
v -8.395785 12.520765 48.199158
v -8.380412 12.516107 48.162525
v -8.390382 12.519693 48.201565
v -8.375008 12.515035 48.164932
v -8.384741 12.518608 48.204067
v -8.369368 12.513949 48.167435
v -8.378864 12.517509 48.206676
v -8.363490 12.512850 48.170044
v -8.372749 12.516395 48.209381
v -8.357376 12.511735 48.172749
v -8.324948 12.680772 48.208538
v -8.309574 12.676112 48.171906
v -8.330705 12.683118 48.205822
v -8.315331 12.678459 48.169189
v -8.336253 12.685345 48.203213
v -8.320880 12.680686 48.166580
v -8.341597 12.687453 48.200703
v -8.326222 12.682794 48.164070
v -8.346734 12.689442 48.198292
v -8.331360 12.684783 48.161659
v -8.351667 12.691312 48.195984
v -8.336293 12.686653 48.159351
v -8.356397 12.693065 48.193775
v -8.341023 12.688405 48.157143
v -8.360924 12.694698 48.191669
v -8.345551 12.690040 48.155037
v -8.365250 12.696215 48.189659
v -8.349875 12.691555 48.153027
v -8.369374 12.697613 48.187752
v -8.354000 12.692954 48.151119
v -8.373299 12.698895 48.185940
v -8.357925 12.694235 48.149307
v -8.377026 12.700059 48.184231
v -8.361651 12.695399 48.147598
v -8.380553 12.701106 48.182617
v -8.365180 12.696447 48.145985
v -8.395525 12.704889 48.175850
v -8.380151 12.700231 48.139217
v -8.408736 12.707061 48.170033
v -8.393362 12.702402 48.133400
v -8.420346 12.707616 48.165089
v -8.404973 12.702957 48.128456
v -8.430516 12.706552 48.160954
v -8.415143 12.701892 48.124321
v -8.439405 12.703862 48.157566
v -8.424032 12.699203 48.120934
v -8.447173 12.699544 48.154854
v -8.431800 12.694885 48.118221
v -8.453979 12.693593 48.152756
v -8.438606 12.688934 48.116123
v -8.459984 12.686005 48.151199
v -8.444610 12.681346 48.114567
v -8.465345 12.676776 48.150124
v -8.449971 12.672117 48.113491
v -8.470224 12.665901 48.149460
v -8.454850 12.661242 48.112827
v -8.474780 12.653377 48.149139
v -8.459407 12.648718 48.112507
v -8.479173 12.639198 48.149101
v -8.463799 12.634540 48.112469
v -8.461258 12.605556 48.160896
v -8.445884 12.600897 48.124268
v -8.460770 12.607303 48.160881
v -8.445396 12.602644 48.124249
v -8.460284 12.609163 48.160847
v -8.444911 12.604504 48.124214
v -8.459797 12.611127 48.160801
v -8.444424 12.606468 48.124168
v -8.459303 12.613188 48.160748
v -8.443930 12.608528 48.124115
v -8.458798 12.615335 48.160686
v -8.443424 12.610676 48.124054
v -8.458277 12.617561 48.160622
v -8.442904 12.612903 48.123989
v -8.457735 12.619858 48.160557
v -8.442362 12.615199 48.123924
v -8.457169 12.622216 48.160496
v -8.441795 12.617558 48.123863
v -8.456573 12.624628 48.160439
v -8.441199 12.619969 48.123806
v -8.455942 12.627085 48.160393
v -8.440568 12.622426 48.123760
v -8.455273 12.629578 48.160355
v -8.439898 12.624919 48.123722
v -8.454559 12.632098 48.160332
v -8.439186 12.627439 48.123699
v -8.453811 12.634631 48.160324
v -8.438437 12.629972 48.123692
v -8.453017 12.637230 48.160328
v -8.437643 12.632571 48.123695
v -8.452180 12.639883 48.160343
v -8.436806 12.635223 48.123711
v -8.451302 12.642577 48.160370
v -8.435928 12.637918 48.123737
v -8.450385 12.645300 48.160408
v -8.435012 12.640640 48.123775
v -8.449432 12.648038 48.160458
v -8.434058 12.643379 48.123825
v -8.448445 12.650781 48.160522
v -8.433071 12.646121 48.123890
v -8.447425 12.653513 48.160603
v -8.432052 12.648854 48.123970
v -8.446376 12.656224 48.160702
v -8.431002 12.651565 48.124069
v -8.445298 12.658900 48.160812
v -8.429924 12.654242 48.124180
v -8.444195 12.661530 48.160942
v -8.428821 12.656870 48.124310
v -8.443068 12.664099 48.161087
v -8.427693 12.659439 48.124454
v -8.441414 12.667406 48.161362
v -8.426040 12.662747 48.124729
v -8.439502 12.670403 48.161781
v -8.424129 12.665745 48.125149
v -8.437257 12.673051 48.162388
v -8.421883 12.668391 48.125755
v -8.434603 12.675308 48.163212
v -8.419229 12.670649 48.126579
v -8.431464 12.677135 48.164299
v -8.416090 12.672477 48.127666
v -8.427765 12.678495 48.165676
v -8.412392 12.673836 48.129044
v -8.423430 12.679346 48.167389
v -8.408056 12.674687 48.130756
v -8.418385 12.679649 48.169468
v -8.403010 12.674991 48.132835
v -8.412551 12.679366 48.171951
v -8.397178 12.674707 48.135319
v -8.405855 12.678455 48.174877
v -8.390482 12.673797 48.138245
v -8.398222 12.676879 48.178280
v -8.382848 12.672220 48.141647
v -8.389574 12.674598 48.182201
v -8.374201 12.669938 48.145569
v -8.386923 12.673832 48.183411
v -8.371549 12.669172 48.146778
v -8.384387 12.673095 48.184570
v -8.369014 12.668435 48.147938
v -8.381928 12.672370 48.185692
v -8.366555 12.667710 48.149059
v -8.379506 12.671640 48.186802
v -8.364133 12.666981 48.150169
v -8.377080 12.670890 48.187916
v -8.361706 12.666231 48.151283
v -8.374609 12.670101 48.189053
v -8.359236 12.665442 48.152420
v -8.372054 12.669259 48.190231
v -8.356680 12.664600 48.153599
v -8.369374 12.668346 48.191475
v -8.354000 12.663688 48.154842
v -8.366529 12.667346 48.192795
v -8.351155 12.662687 48.156162
v -8.363480 12.666242 48.194214
v -8.348105 12.661583 48.157581
v -8.360184 12.665017 48.195755
v -8.344810 12.660357 48.159122
v -8.356604 12.663655 48.197430
v -8.341229 12.658996 48.160797
v -8.390278 12.547857 48.198025
v -8.374904 12.543199 48.161392
v -8.393352 12.548482 48.196655
v -8.377977 12.543822 48.160023
v -8.396368 12.549122 48.195309
v -8.380995 12.544462 48.158676
v -8.399325 12.549774 48.193985
v -8.383952 12.545115 48.157352
v -8.402221 12.550436 48.192684
v -8.386847 12.545777 48.156052
v -8.405051 12.551106 48.191410
v -8.389678 12.546448 48.154778
v -8.407814 12.551783 48.190166
v -8.392441 12.547123 48.153534
v -8.410506 12.552461 48.188950
v -8.395132 12.547802 48.152317
v -8.413124 12.553140 48.187763
v -8.397751 12.548481 48.151131
v -8.415667 12.553816 48.186611
v -8.400292 12.549157 48.149979
v -8.418129 12.554488 48.185493
v -8.402756 12.549829 48.148861
v -8.420510 12.555153 48.184410
v -8.405137 12.550494 48.147778
v -8.422807 12.555809 48.183361
v -8.407433 12.551149 48.146729
v -8.431310 12.558428 48.179462
v -8.415936 12.553769 48.142830
v -8.438642 12.561049 48.176052
v -8.423267 12.556389 48.139420
v -8.444877 12.563696 48.173096
v -8.429502 12.559037 48.136463
v -8.450087 12.566400 48.170567
v -8.434712 12.561741 48.133934
v -8.454346 12.569187 48.168427
v -8.438972 12.564528 48.131794
v -8.457726 12.572085 48.166637
v -8.442351 12.567427 48.130005
v -8.460299 12.575123 48.165173
v -8.444926 12.570463 48.128540
v -8.462141 12.578326 48.163990
v -8.446768 12.573667 48.127357
v -8.463323 12.581723 48.163063
v -8.447949 12.577065 48.126431
v -8.463918 12.585342 48.162354
v -8.448545 12.580684 48.125721
v -8.463999 12.589211 48.161827
v -8.448626 12.584553 48.125195
v -8.463639 12.593358 48.161449
v -8.448265 12.588698 48.124817
v -8.463545 12.594285 48.161373
v -8.448172 12.589626 48.124741
v -8.463457 12.595150 48.161297
v -8.448084 12.590491 48.124664
v -8.463368 12.595971 48.161232
v -8.447995 12.591312 48.124599
v -8.463273 12.596769 48.161171
v -8.447900 12.592111 48.124538
v -8.463164 12.597564 48.161114
v -8.447791 12.592904 48.124481
v -8.463037 12.598373 48.161064
v -8.447663 12.593715 48.124432
v -8.462883 12.599219 48.161022
v -8.447510 12.594561 48.124390
v -8.462698 12.600121 48.160984
v -8.447325 12.595462 48.124352
v -8.462475 12.601097 48.160954
v -8.447101 12.596438 48.124321
v -8.462207 12.602169 48.160931
v -8.446834 12.597509 48.124298
v -8.461889 12.603354 48.160912
v -8.446515 12.598696 48.124279
v -8.461514 12.604675 48.160904
v -8.446140 12.600017 48.124271
v -8.634906 12.586925 48.090393
v -8.619532 12.582266 48.053761
v -8.629555 12.592406 48.091942
v -8.614182 12.587747 48.055309
v -8.624419 12.597888 48.093399
v -8.609045 12.593229 48.056767
v -8.619512 12.603329 48.094765
v -8.604137 12.598669 48.058132
v -8.614848 12.608683 48.096043
v -8.599474 12.604024 48.059410
v -8.610442 12.613909 48.097225
v -8.595069 12.609249 48.060593
v -8.606310 12.618962 48.098320
v -8.590936 12.614304 48.061687
v -8.602464 12.623800 48.099316
v -8.587090 12.619142 48.062683
v -8.598921 12.628380 48.100224
v -8.583547 12.623721 48.063591
v -8.595694 12.632658 48.101032
v -8.580320 12.627998 48.064400
v -8.592798 12.636590 48.101746
v -8.577424 12.631931 48.065113
v -8.590248 12.640134 48.102367
v -8.574875 12.635475 48.065735
v -8.588059 12.643247 48.102890
v -8.572685 12.638587 48.066257
v -8.587051 12.642920 48.103355
v -8.571678 12.638260 48.066723
v -8.586026 12.642592 48.103825
v -8.570653 12.637934 48.067192
v -8.584984 12.642267 48.104305
v -8.569611 12.637609 48.067673
v -8.583924 12.641942 48.104790
v -8.568551 12.637282 48.068157
v -8.582850 12.641616 48.105282
v -8.567475 12.636957 48.068649
v -8.581758 12.641290 48.105782
v -8.566384 12.636630 48.069149
v -8.580652 12.640962 48.106289
v -8.565279 12.636303 48.069656
v -8.579533 12.640634 48.106800
v -8.564158 12.635974 48.070168
v -8.578399 12.640303 48.107319
v -8.563025 12.635644 48.070686
v -8.577251 12.639971 48.107841
v -8.561878 12.635311 48.071209
v -8.576092 12.639635 48.108372
v -8.560719 12.634976 48.071739
v -8.574921 12.639297 48.108906
v -8.559547 12.634638 48.072273
v -8.538607 12.628822 48.125477
v -8.523233 12.624164 48.088844
v -8.557258 12.564686 48.125809
v -8.541884 12.560027 48.089176
v -8.532780 12.557625 48.136978
v -8.517406 12.552966 48.100346
v -8.483100 12.728459 48.136101
v -8.467727 12.723801 48.099468
v -8.535151 12.743474 48.112347
v -8.519776 12.738814 48.075714
v -8.538180 12.744341 48.110966
v -8.522807 12.739682 48.074333
v -8.541149 12.745175 48.109612
v -8.525776 12.740517 48.072979
v -8.544054 12.745975 48.108292
v -8.528680 12.741316 48.071659
v -8.546890 12.746737 48.107006
v -8.531516 12.742078 48.070374
v -8.549655 12.747458 48.105751
v -8.534281 12.742799 48.069118
v -8.552345 12.748136 48.104538
v -8.536971 12.743477 48.067905
v -8.554957 12.748768 48.103359
v -8.539584 12.744109 48.066727
v -8.557489 12.749352 48.102222
v -8.542115 12.744693 48.065590
v -8.559937 12.749886 48.101128
v -8.544562 12.745226 48.064495
v -8.562296 12.750365 48.100079
v -8.546922 12.745706 48.063446
v -8.564564 12.750789 48.099072
v -8.549191 12.746130 48.062439
v -8.566738 12.751154 48.098114
v -8.551364 12.746494 48.061481
v -8.573915 12.751911 48.095005
v -8.558540 12.747252 48.058372
v -8.580520 12.751929 48.092232
v -8.565145 12.747271 48.055599
v -8.586584 12.751194 48.089779
v -8.571211 12.746535 48.053146
v -8.592140 12.749691 48.087639
v -8.576767 12.745031 48.051006
v -8.597219 12.747405 48.085796
v -8.581845 12.742745 48.049164
v -8.601853 12.744322 48.084244
v -8.586479 12.739662 48.047611
v -8.606073 12.740426 48.082970
v -8.590699 12.735767 48.046337
v -8.609911 12.735704 48.081959
v -8.594537 12.731045 48.045326
v -8.613398 12.730141 48.081203
v -8.598024 12.725482 48.044571
v -8.616566 12.723722 48.080692
v -8.601192 12.719063 48.044060
v -8.619447 12.716432 48.080410
v -8.604074 12.711773 48.043777
v -8.622071 12.708257 48.080345
v -8.606698 12.703598 48.043713
v -8.623784 12.701770 48.080452
v -8.608410 12.697111 48.043819
v -8.625036 12.695662 48.080704
v -8.609662 12.691002 48.044071
v -8.625825 12.689922 48.081104
v -8.610451 12.685264 48.044472
v -8.626148 12.684546 48.081650
v -8.610775 12.679887 48.045017
v -8.626004 12.679525 48.082352
v -8.610630 12.674867 48.045719
v -8.625389 12.674853 48.083202
v -8.610016 12.670195 48.046570
v -8.624302 12.670522 48.084209
v -8.608929 12.665863 48.047577
v -8.622740 12.666524 48.085373
v -8.607366 12.661865 48.048740
v -8.620700 12.662852 48.086697
v -8.605326 12.658194 48.050064
v -8.618180 12.659500 48.088181
v -8.602806 12.654840 48.051548
v -8.615177 12.656459 48.089828
v -8.599804 12.651799 48.053196
v -8.611691 12.653722 48.091640
v -8.596316 12.649062 48.055008
v -8.612045 12.653264 48.091549
v -8.596672 12.648604 48.054916
v -8.612408 12.652801 48.091457
v -8.597034 12.648142 48.054825
v -8.612778 12.652332 48.091358
v -8.597404 12.647674 48.054726
v -8.613155 12.651858 48.091263
v -8.597782 12.647200 48.054630
v -8.613542 12.651378 48.091160
v -8.598167 12.646718 48.054527
v -8.613935 12.650889 48.091057
v -8.598561 12.646231 48.054424
v -8.614338 12.650393 48.090950
v -8.598964 12.645735 48.054317
v -8.614748 12.649890 48.090843
v -8.599375 12.645231 48.054211
v -8.615168 12.649378 48.090733
v -8.599793 12.644719 48.054100
v -8.615596 12.648857 48.090618
v -8.600222 12.644197 48.053986
v -8.616033 12.648326 48.090504
v -8.600658 12.643667 48.053871
v -8.616478 12.647785 48.090385
v -8.601105 12.643126 48.053753
v -8.618997 12.644618 48.089733
v -8.603622 12.639959 48.053101
v -8.621731 12.641206 48.089016
v -8.606358 12.636547 48.052383
v -8.624697 12.637556 48.088238
v -8.609323 12.632897 48.051605
v -8.627908 12.633677 48.087383
v -8.612534 12.629019 48.050751
v -8.631379 12.629579 48.086449
v -8.616005 12.624919 48.049816
v -8.635126 12.625266 48.085423
v -8.619753 12.620607 48.048790
v -8.639164 12.620749 48.084305
v -8.623790 12.616091 48.047672
v -8.643507 12.616036 48.083080
v -8.628133 12.611378 48.046448
v -8.648170 12.611135 48.081745
v -8.632795 12.606476 48.045113
v -8.653167 12.606053 48.080296
v -8.637794 12.601395 48.043663
v -8.658514 12.600800 48.078720
v -8.643141 12.596141 48.042088
v -8.664226 12.595383 48.077011
v -8.648852 12.590723 48.040379
v -8.599655 12.680673 48.093262
v -8.584281 12.676013 48.056629
v -8.599977 12.681606 48.093010
v -8.584603 12.676948 48.056377
v -8.600227 12.682700 48.092766
v -8.584853 12.678041 48.056133
v -8.600396 12.683964 48.092533
v -8.585022 12.679305 48.055901
v -8.600473 12.685410 48.092316
v -8.585100 12.680750 48.055683
v -8.600451 12.687047 48.092117
v -8.585076 12.682388 48.055485
v -8.600316 12.688889 48.091942
v -8.584943 12.684229 48.055309
v -8.600061 12.690944 48.091785
v -8.584688 12.686284 48.055153
v -8.599677 12.693224 48.091656
v -8.584303 12.688565 48.055023
v -8.599152 12.695742 48.091557
v -8.583778 12.691082 48.054924
v -8.598477 12.698505 48.091488
v -8.583103 12.693847 48.054855
v -8.597642 12.701529 48.091454
v -8.582269 12.696869 48.054821
v -8.595628 12.707800 48.091503
v -8.580255 12.703141 48.054871
v -8.593505 12.712937 48.091740
v -8.578131 12.708279 48.055107
v -8.591166 12.717007 48.092205
v -8.575792 12.712348 48.055573
v -8.588508 12.720074 48.092930
v -8.573133 12.715415 48.056297
v -8.585423 12.722205 48.093952
v -8.570048 12.717546 48.057320
v -8.581805 12.723466 48.095310
v -8.566432 12.718807 48.058678
v -8.577550 12.723924 48.097038
v -8.562177 12.719264 48.060406
v -8.572552 12.723643 48.099171
v -8.557178 12.718984 48.062538
v -8.566703 12.722692 48.101749
v -8.551330 12.718033 48.065117
v -8.559899 12.721134 48.104801
v -8.544526 12.716475 48.068169
v -8.552035 12.719038 48.108368
v -8.536661 12.714379 48.071735
v -8.543003 12.716469 48.112484
v -8.527630 12.711810 48.075851
v -8.515431 12.708516 48.125069
v -8.500058 12.703856 48.088436
v -8.530754 12.655827 48.125340
v -8.515380 12.651168 48.088707
v -8.567068 12.666302 48.108765
v -8.551694 12.661643 48.072132
v -8.571665 12.667645 48.106667
v -8.556291 12.662987 48.070034
v -8.575907 12.668927 48.104725
v -8.560534 12.664268 48.068092
v -8.579797 12.670153 48.102936
v -8.564424 12.665494 48.066303
v -8.583337 12.671330 48.101299
v -8.567963 12.666672 48.064667
v -8.586528 12.672468 48.099815
v -8.571154 12.667809 48.063183
v -8.589373 12.673571 48.098480
v -8.573998 12.668912 48.061848
v -8.591872 12.674648 48.097294
v -8.576498 12.669989 48.060661
v -8.594029 12.675706 48.096256
v -8.578655 12.671046 48.059624
v -8.595846 12.676751 48.095360
v -8.580472 12.672091 48.058727
v -8.597323 12.677792 48.094608
v -8.581950 12.673132 48.057976
v -8.598465 12.678834 48.093998
v -8.583091 12.674175 48.057365
v -8.599271 12.679887 48.093525
v -8.583898 12.675227 48.056892
v -8.710138 12.608945 48.056019
v -8.694765 12.604285 48.019386
v -8.685526 12.601845 48.067249
v -8.670152 12.597186 48.030617
v -8.635974 12.772239 48.066376
v -8.620601 12.767580 48.029743
v -8.660587 12.779339 48.055141
v -8.645214 12.774680 48.018509
v -8.820829 12.640874 48.005505
v -8.805456 12.636215 47.968872
v -8.793796 12.633076 48.017841
v -8.778422 12.628417 47.981209
v -8.677448 12.784521 48.047405
v -8.662075 12.779861 48.010773
v -8.704079 12.792203 48.035255
v -8.688705 12.787543 47.998623
v -8.797436 12.671191 48.011467
v -8.782062 12.666532 47.974834
v -8.798534 12.683772 48.009403
v -8.783161 12.679113 47.972771
v -8.799659 12.696389 48.007328
v -8.784286 12.691730 47.970695
v -8.800803 12.709036 48.005238
v -8.785430 12.704376 47.968605
v -8.801962 12.721704 48.003139
v -8.786589 12.717045 47.966507
v -8.803131 12.734388 48.001038
v -8.787757 12.729730 47.964405
v -8.804303 12.747083 47.998932
v -8.788930 12.742424 47.962299
v -8.805475 12.759780 47.996822
v -8.790101 12.755121 47.960190
v -8.806641 12.772473 47.994720
v -8.791267 12.767815 47.958088
v -8.807796 12.785157 47.992622
v -8.792421 12.780499 47.955990
v -8.808933 12.797825 47.990536
v -8.793560 12.793166 47.953903
v -8.810050 12.810470 47.988457
v -8.794676 12.805810 47.951824
v -8.811139 12.823085 47.986397
v -8.795765 12.818426 47.949764
v -8.837904 12.830805 47.974182
v -8.822530 12.826146 47.937550
v -8.899478 12.770460 47.956017
v -8.884104 12.765801 47.919384
v -8.983942 12.794825 47.917469
v -8.968569 12.790166 47.880836
v -8.991710 12.768113 47.917606
v -8.976336 12.763454 47.880974
v -8.907246 12.743749 47.956154
v -8.891871 12.739090 47.919521
v -8.920391 12.698545 47.956387
v -8.905017 12.693886 47.919754
v -9.012925 12.725238 47.914154
v -8.997551 12.720578 47.877522
v -9.020693 12.698526 47.914291
v -9.005320 12.693867 47.877659
v -8.903545 12.664734 47.967754
v -8.888172 12.660075 47.931122
v -8.853909 12.835423 47.966877
v -8.838535 12.830763 47.930244
v -8.971056 12.869214 47.913414
v -8.955683 12.864555 47.876781
v -8.978824 12.842503 47.913551
v -8.963450 12.837844 47.876919
v -8.886290 12.815810 47.955784
v -8.870916 12.811152 47.919151
vn 0.3843 -0.1165 -0.9158
vn -0.3843 0.1165 0.9158
vn -0.8846 0.2374 -0.4014
vn -0.8887 0.2221 -0.4012
vn -0.8922 0.2081 -0.4009
vn -0.8952 0.1955 -0.4005
vn -0.8978 0.1840 -0.4002
vn -0.9000 0.1737 -0.3998
vn -0.9018 0.1647 -0.3994
vn -0.9033 0.1573 -0.3991
vn -0.9043 0.1522 -0.3989
vn -0.9044 0.1515 -0.3988
vn -0.9016 0.1661 -0.3995
vn -0.9094 0.1232 -0.3973
vn -0.9219 0.0040 -0.3874
vn -0.9199 -0.1320 -0.3693
vn -0.8963 -0.2850 -0.3399
vn -0.8459 -0.4419 -0.2988
vn -0.7709 -0.5862 -0.2490
vn -0.6812 -0.7053 -0.1962
vn -0.5890 -0.7948 -0.1461
vn -0.5037 -0.8578 -0.1023
vn -0.4299 -0.9005 -0.0659
vn -0.3688 -0.9288 -0.0367
vn -0.3195 -0.9475 -0.0136
vn -0.2853 -0.9584 0.0022
vn -0.2673 -0.9636 0.0104
vn -0.2565 -0.9664 0.0153
vn -0.2470 -0.9688 0.0196
vn -0.2385 -0.9709 0.0234
vn -0.2309 -0.9726 0.0268
vn -0.2241 -0.9741 0.0298
vn -0.2180 -0.9754 0.0326
vn -0.2125 -0.9765 0.0350
vn -0.2075 -0.9775 0.0372
vn -0.2030 -0.9784 0.0392
vn -0.1990 -0.9791 0.0410
vn 0.4621 -0.8345 0.3001
vn 0.8394 0.4571 0.2941
vn 0.3613 0.9319 0.0331
vn 0.3569 0.9336 0.0310
vn 0.3521 0.9355 0.0288
vn 0.3469 0.9375 0.0263
vn 0.3411 0.9397 0.0237
vn 0.3348 0.9420 0.0207
vn 0.3279 0.9446 0.0175
vn 0.3202 0.9473 0.0139
vn 0.3116 0.9502 0.0099
vn 0.3020 0.9533 0.0055
vn 0.2912 0.9567 0.0005
vn 0.2689 0.9631 -0.0096
vn 0.2176 0.9755 -0.0327
vn 0.1344 0.9885 -0.0693
vn 0.0206 0.9928 -0.1176
vn -0.1275 0.9758 -0.1776
vn -0.3021 0.9215 -0.2440
vn -0.4790 0.8229 -0.3057
vn -0.6286 0.6935 -0.3520
vn -0.7356 0.5608 -0.3800
vn -0.8033 0.4467 -0.3939
vn -0.8434 0.3592 -0.3996
vn -0.8663 0.2972 -0.4014
vn -0.8785 0.2587 -0.4016
vn 0.8816 -0.2482 0.4015
vn 0.8856 -0.2337 0.4014
vn 0.8896 -0.2183 0.4011
vn 0.8923 -0.2077 0.4009
vn 0.8938 -0.2013 0.4007
vn 0.8945 -0.1984 0.4006
vn 0.8944 -0.1987 0.4006
vn 0.8937 -0.2018 0.4007
vn 0.8923 -0.2075 0.4009
vn 0.8903 -0.2157 0.4011
vn 0.8876 -0.2263 0.4013
vn 0.8841 -0.2391 0.4015
vn 0.8804 -0.2523 0.4016
vn 0.8772 -0.2633 0.4016
vn 0.8743 -0.2727 0.4016
vn 0.8712 -0.2823 0.4015
vn 0.8680 -0.2923 0.4014
vn 0.8645 -0.3025 0.4013
vn 0.8608 -0.3133 0.4011
vn 0.8567 -0.3248 0.4008
vn 0.8521 -0.3369 0.4005
vn 0.8471 -0.3500 0.4000
vn 0.8414 -0.3641 0.3994
vn 0.8349 -0.3794 0.3987
vn 0.8202 -0.4122 0.3966
vn 0.7819 -0.4863 0.3900
vn 0.7124 -0.5935 0.3745
vn 0.6114 -0.7112 0.3470
vn 0.4813 -0.8212 0.3064
vn 0.3352 -0.9067 0.2560
vn 0.1916 -0.9603 0.2026
vn 0.0646 -0.9862 0.1526
vn -0.0400 -0.9932 0.1095
vn -0.1231 -0.9896 0.0742
vn -0.1880 -0.9811 0.0459
vn -0.2386 -0.9708 0.0233
vn -0.2701 -0.9628 0.0091
vn -0.2802 -0.9599 0.0045
vn -0.2825 -0.9593 0.0035
vn -0.2863 -0.9581 0.0017
vn -0.2916 -0.9565 -0.0007
vn -0.2981 -0.9545 -0.0037
vn -0.3055 -0.9522 -0.0071
vn -0.3133 -0.9496 -0.0107
vn -0.3211 -0.9469 -0.0143
vn -0.3287 -0.9443 -0.0178
vn -0.3357 -0.9417 -0.0211
vn -0.3420 -0.9394 -0.0240
vn -0.8351 -0.4667 -0.2911
vn -0.4547 0.8395 -0.2976
vn 0.2172 0.9756 -0.0329
vn 0.2241 0.9741 -0.0299
vn 0.2306 0.9727 -0.0269
vn 0.2370 0.9712 -0.0241
vn 0.2430 0.9698 -0.0213
vn 0.2489 0.9684 -0.0187
vn 0.2545 0.9669 -0.0162
vn 0.2599 0.9655 -0.0137
vn 0.2650 0.9642 -0.0114
vn 0.2700 0.9628 -0.0092
vn 0.2747 0.9615 -0.0070
vn 0.2854 0.9584 -0.0021
vn 0.3114 0.9502 0.0098
vn 0.3520 0.9356 0.0287
vn 0.4044 0.9130 0.0536
vn 0.4710 0.8780 0.0860
vn 0.5530 0.8234 0.1274
vn 0.6481 0.7406 0.1778
vn 0.7467 0.6226 0.2342
vn 0.8329 0.4716 0.2896
vn 0.8915 0.3043 0.3355
vn 0.9188 0.1452 0.3671
vn 0.9226 0.0133 0.3855
vn 0.9185 -0.0519 0.3921
vn 0.9177 -0.0598 0.3927
vn 0.9173 -0.0635 0.3931
vn 0.9163 -0.0730 0.3938
vn 0.9144 -0.0882 0.3950
vn 0.9117 -0.1083 0.3964
vn 0.9080 -0.1317 0.3978
vn 0.9035 -0.1564 0.3991
vn 0.8985 -0.1806 0.4001
vn 0.8934 -0.2030 0.4008
vn 0.8885 -0.2227 0.4012
vn 0.8840 -0.2395 0.4015
vn 0.8809 -0.2505 0.4016
vn 0.1961 -0.9591 0.2043
vn 0.6266 -0.6956 0.3514
vn 0.6405 -0.6807 0.3554
vn 0.6531 -0.6668 0.3589
vn 0.6646 -0.6536 0.3620
vn 0.6750 -0.6412 0.3649
vn 0.6846 -0.6295 0.3674
vn 0.6934 -0.6185 0.3697
vn 0.7016 -0.6079 0.3718
vn 0.7092 -0.5979 0.3737
vn 0.7162 -0.5883 0.3754
vn 0.7229 -0.5790 0.3770
vn 0.2585 -0.9387 0.2279
vn -0.3035 -0.9528 -0.0062
vn -0.2990 -0.9543 -0.0041
vn -0.2950 -0.9555 -0.0023
vn -0.2915 -0.9566 -0.0007
vn -0.2886 -0.9575 0.0007
vn -0.2860 -0.9582 0.0018
vn -0.2839 -0.9588 0.0028
vn -0.2822 -0.9593 0.0036
vn -0.2809 -0.9597 0.0042
vn -0.2800 -0.9600 0.0046
vn -0.2795 -0.9601 0.0048
vn -0.2793 -0.9602 0.0049
vn -0.8197 -0.4995 -0.2805
vn 0.4248 -0.8585 0.2874
vn 0.8197 0.4995 0.2805
vn 0.2784 0.9605 -0.0053
vn 0.2756 0.9612 -0.0066
vn 0.2715 0.9624 -0.0084
vn 0.2668 0.9637 -0.0106
vn 0.2613 0.9652 -0.0131
vn 0.2551 0.9668 -0.0159
vn 0.2479 0.9686 -0.0191
vn 0.2397 0.9706 -0.0228
vn 0.2303 0.9727 -0.0271
vn 0.2196 0.9751 -0.0319
vn 0.2073 0.9776 -0.0373
vn 0.1931 0.9802 -0.0436
vn 0.1600 0.9854 -0.0582
vn 0.0910 0.9920 -0.0880
vn -0.0057 0.9917 -0.1285
vn -0.1215 0.9770 -0.1753
vn -0.2527 0.9408 -0.2257
vn -0.3902 0.8786 -0.2755
vn -0.5210 0.7916 -0.3193
vn -0.6334 0.6885 -0.3534
vn -0.7213 0.5812 -0.3766
vn -0.7854 0.4802 -0.3907
vn -0.8297 0.3914 -0.3980
vn -0.8596 0.3167 -0.4010
vn -0.8795 0.2553 -0.4016
vn -0.8946 0.1980 -0.4006
vn -0.9077 0.1332 -0.3979
vn -0.9180 0.0570 -0.3925
vn -0.9231 -0.0317 -0.3834
vn -0.9198 -0.1327 -0.3692
vn -0.9048 -0.2444 -0.3486
vn -0.8748 -0.3630 -0.3210
vn -0.8280 -0.4821 -0.2862
vn -0.7655 -0.5947 -0.2456
vn -0.6910 -0.6942 -0.2017
vn -0.6098 -0.7768 -0.1571
vn -0.9189 -0.1442 -0.3673
vn -0.6955 0.6158 -0.3702
vn -0.6925 0.6196 -0.3694
vn -0.6898 0.6231 -0.3687
vn -0.6873 0.6262 -0.3681
vn -0.6852 0.6289 -0.3675
vn -0.6833 0.6312 -0.3670
vn -0.6817 0.6332 -0.3666
vn -0.6803 0.6349 -0.3663
vn -0.6792 0.6362 -0.3660
vn -0.6784 0.6372 -0.3657
vn -0.6777 0.6380 -0.3656
vn -0.6878 0.6256 -0.3682
vn -0.6843 0.6299 -0.3673
vn -0.6791 0.6364 -0.3659
vn -0.6723 0.6446 -0.3641
vn -0.6642 0.6541 -0.3619
vn -0.6551 0.6646 -0.3594
vn -0.6450 0.6759 -0.3566
vn -0.6341 0.6876 -0.3536
vn -0.6226 0.6998 -0.3503
vn -0.6104 0.7122 -0.3467
vn -0.5977 0.7246 -0.3430
vn -0.9059 -0.2387 -0.3498
vn 0.8463 0.4408 0.2991
vn 0.8837 0.3336 0.3284
vn 0.9066 0.2350 0.3506
vn 0.9186 0.1469 0.3668
vn 0.9230 0.0694 0.3785
vn 0.9222 0.0020 0.3868
vn 0.9180 -0.0565 0.3925
vn 0.9118 -0.1073 0.3963
vn 0.9044 -0.1514 0.3988
vn 0.8964 -0.1900 0.4004
vn 0.8882 -0.2238 0.4012
vn 0.8778 -0.2612 0.4016
vn 0.8567 -0.3247 0.4008
vn 0.8117 -0.4300 0.3953
vn 0.7236 -0.5781 0.3772
vn 0.5709 -0.7496 0.3349
vn 0.3616 -0.8938 0.2654
vn 0.1471 -0.9716 0.1853
vn -0.0229 -0.9929 0.1167
vn -0.1372 -0.9882 0.0681
vn -0.2077 -0.9775 0.0372
vn -0.2484 -0.9685 0.0189
vn -0.2695 -0.9629 0.0094
vn -0.2777 -0.9606 0.0056
vn -0.4248 0.8585 -0.2874
vn 0.2807 0.9598 -0.0043
vn 0.2857 0.9583 -0.0020
vn 0.2941 0.9558 0.0019
vn 0.3052 0.9522 0.0070
vn 0.3200 0.9473 0.0138
vn 0.3392 0.9404 0.0228
vn 0.3644 0.9306 0.0346
vn 0.3975 0.9162 0.0503
vn 0.4412 0.8945 0.0714
vn 0.4991 0.8607 0.1000
vn 0.5754 0.8059 0.1390
vn 0.6730 0.7144 0.1916
vn 0.7766 0.5772 0.2525
vn -0.7180 -0.6612 -0.2172
vn 0.2521 -0.9411 0.2255
vn 0.8881 0.3175 0.3323
vn -0.2511 0.9414 -0.2251
vn 0.2814 0.9596 -0.0040
vn 0.9191 0.1415 0.3677
vn 0.9190 0.1431 0.3675
vn 0.9189 0.1443 0.3673
vn 0.9187 0.1456 0.3670
vn 0.9187 0.1457 0.3670
vn 0.9187 0.1455 0.3671
vn 0.9188 0.1448 0.3672
vn 0.9189 0.1438 0.3674
vn 0.9190 0.1423 0.3676
vn 0.9192 0.1405 0.3679
vn 0.7191 0.6599 0.2179
vn -0.5803 0.7411 -0.3378
vt 0.636364 0.000000
vt 1.000000 0.000000
vt 0.727273 0.000000
vt 0.818182 0.000000
vt 0.909091 0.000000
vt 0.000000 0.000000
vt 0.272727 0.000000
vt 0.090909 0.000000
vt 0.181818 0.000000
vt 0.363636 0.000000
vt 0.454545 0.000000
vt 0.545455 0.000000
vt 0.058824 0.000000
vt 0.176471 0.000000
vt 0.117647 0.000000
vt 0.235294 0.000000
vt 0.882353 0.000000
vt 0.941176 0.000000
vt 0.823529 0.000000
vt 0.764706 0.000000
vt 0.705882 0.000000
vt 0.647059 0.000000
vt 0.588235 0.000000
vt 0.529412 0.000000
vt 0.470588 0.000000
vt 0.411765 0.000000
vt 0.352941 0.000000
vt 0.294118 0.000000
vt 0.333333 0.000000
vt 0.666667 0.000000
vt 0.210938 0.000000
vt 0.890625 0.000000
vt 0.218750 0.000000
vt 0.226562 0.000000
vt 0.234375 0.000000
vt 0.242188 0.000000
vt 0.250000 0.000000
vt 0.257812 0.000000
vt 0.265625 0.000000
vt 0.273438 0.000000
vt 0.281250 0.000000
vt 0.289062 0.000000
vt 0.296875 0.000000
vt 0.304688 0.000000
vt 0.312500 0.000000
vt 0.320312 0.000000
vt 0.328125 0.000000
vt 0.335938 0.000000
vt 0.343750 0.000000
vt 0.351562 0.000000
vt 0.359375 0.000000
vt 0.367188 0.000000
vt 0.375000 0.000000
vt 0.882812 0.000000
vt 0.382812 0.000000
vt 0.898438 0.000000
vt 0.875000 0.000000
vt 0.867188 0.000000
vt 0.859375 0.000000
vt 0.851562 0.000000
vt 0.390625 0.000000
vt 0.843750 0.000000
vt 0.835938 0.000000
vt 0.828125 0.000000
vt 0.820312 0.000000
vt 0.398438 0.000000
vt 0.812500 0.000000
vt 0.804688 0.000000
vt 0.406250 0.000000
vt 0.796875 0.000000
vt 0.414062 0.000000
vt 0.789062 0.000000
vt 0.781250 0.000000
vt 0.421875 0.000000
vt 0.773438 0.000000
vt 0.765625 0.000000
vt 0.429688 0.000000
vt 0.757812 0.000000
vt 0.750000 0.000000
vt 0.742188 0.000000
vt 0.437500 0.000000
vt 0.734375 0.000000
vt 0.726562 0.000000
vt 0.718750 0.000000
vt 0.710938 0.000000
vt 0.445312 0.000000
vt 0.703125 0.000000
vt 0.992188 0.000000
vt 0.984375 0.000000
vt 0.976562 0.000000
vt 0.968750 0.000000
vt 0.960938 0.000000
vt 0.453125 0.000000
vt 0.953125 0.000000
vt 0.945312 0.000000
vt 0.937500 0.000000
vt 0.929688 0.000000
vt 0.921875 0.000000
vt 0.914062 0.000000
vt 0.906250 0.000000
vt 0.195312 0.000000
vt 0.460938 0.000000
vt 0.468750 0.000000
vt 0.476562 0.000000
vt 0.484375 0.000000
vt 0.492188 0.000000
vt 0.500000 0.000000
vt 0.507812 0.000000
vt 0.515625 0.000000
vt 0.523438 0.000000
vt 0.531250 0.000000
vt 0.539062 0.000000
vt 0.546875 0.000000
vt 0.554688 0.000000
vt 0.093750 0.000000
vt 0.562500 0.000000
vt 0.101562 0.000000
vt 0.085938 0.000000
vt 0.109375 0.000000
vt 0.117188 0.000000
vt 0.125000 0.000000
vt 0.132812 0.000000
vt 0.140625 0.000000
vt 0.148438 0.000000
vt 0.156250 0.000000
vt 0.164062 0.000000
vt 0.171875 0.000000
vt 0.179688 0.000000
vt 0.187500 0.000000
vt 0.203125 0.000000
vt 0.570312 0.000000
vt 0.578125 0.000000
vt 0.585938 0.000000
vt 0.593750 0.000000
vt 0.601562 0.000000
vt 0.609375 0.000000
vt 0.078125 0.000000
vt 0.617188 0.000000
vt 0.070312 0.000000
vt 0.625000 0.000000
vt 0.062500 0.000000
vt 0.632812 0.000000
vt 0.054688 0.000000
vt 0.640625 0.000000
vt 0.046875 0.000000
vt 0.648438 0.000000
vt 0.039062 0.000000
vt 0.656250 0.000000
vt 0.031250 0.000000
vt 0.664062 0.000000
vt 0.023438 0.000000
vt 0.671875 0.000000
vt 0.015625 0.000000
vt 0.679688 0.000000
vt 0.007812 0.000000
vt 0.687500 0.000000
vt 0.695312 0.000000
vt 0.321918 0.000000
vt 0.335616 0.000000
vt 0.328767 0.000000
vt 0.315068 0.000000
vt 0.308219 0.000000
vt 0.301370 0.000000
vt 0.294521 0.000000
vt 0.342466 0.000000
vt 0.287671 0.000000
vt 0.280822 0.000000
vt 0.273973 0.000000
vt 0.267123 0.000000
vt 0.349315 0.000000
vt 0.260274 0.000000
vt 0.253425 0.000000
vt 0.246575 0.000000
vt 0.239726 0.000000
vt 0.746575 0.000000
vt 0.356164 0.000000
vt 0.363014 0.000000
vt 0.369863 0.000000
vt 0.739726 0.000000
vt 0.732877 0.000000
vt 0.726027 0.000000
vt 0.719178 0.000000
vt 0.712329 0.000000
vt 0.705479 0.000000
vt 0.698630 0.000000
vt 0.691781 0.000000
vt 0.684932 0.000000
vt 0.678082 0.000000
vt 0.376712 0.000000
vt 0.671233 0.000000
vt 0.664384 0.000000
vt 0.657534 0.000000
vt 0.650685 0.000000
vt 0.383562 0.000000
vt 0.643836 0.000000
vt 0.753425 0.000000
vt 0.636986 0.000000
vt 0.630137 0.000000
vt 0.623288 0.000000
vt 0.616438 0.000000
vt 0.390411 0.000000
vt 0.609589 0.000000
vt 0.602740 0.000000
vt 0.595890 0.000000
vt 0.589041 0.000000
vt 0.397260 0.000000
vt 0.582192 0.000000
vt 0.575342 0.000000
vt 0.568493 0.000000
vt 0.561644 0.000000
vt 0.404110 0.000000
vt 0.554795 0.000000
vt 0.547945 0.000000
vt 0.541096 0.000000
vt 0.534247 0.000000
vt 0.410959 0.000000
vt 0.527397 0.000000
vt 0.520548 0.000000
vt 0.513699 0.000000
vt 0.506849 0.000000
vt 0.493151 0.000000
vt 0.486301 0.000000
vt 0.479452 0.000000
vt 0.006849 0.000000
vt 0.472603 0.000000
vt 0.465753 0.000000
vt 0.013699 0.000000
vt 0.458904 0.000000
vt 0.452055 0.000000
vt 0.020548 0.000000
vt 0.445205 0.000000
vt 0.438356 0.000000
vt 0.027397 0.000000
vt 0.431507 0.000000
vt 0.424658 0.000000
vt 0.417808 0.000000
vt 0.034247 0.000000
vt 0.993151 0.000000
vt 0.986301 0.000000
vt 0.041096 0.000000
vt 0.979452 0.000000
vt 0.972603 0.000000
vt 0.965753 0.000000
vt 0.958904 0.000000
vt 0.047945 0.000000
vt 0.952055 0.000000
vt 0.945205 0.000000
vt 0.938356 0.000000
vt 0.054795 0.000000
vt 0.931507 0.000000
vt 0.924658 0.000000
vt 0.917808 0.000000
vt 0.061644 0.000000
vt 0.910959 0.000000
vt 0.068493 0.000000
vt 0.075342 0.000000
vt 0.082192 0.000000
vt 0.904110 0.000000
vt 0.897260 0.000000
vt 0.890411 0.000000
vt 0.089041 0.000000
vt 0.883562 0.000000
vt 0.876712 0.000000
vt 0.869863 0.000000
vt 0.095890 0.000000
vt 0.863014 0.000000
vt 0.856164 0.000000
vt 0.849315 0.000000
vt 0.760274 0.000000
vt 0.767123 0.000000
vt 0.773973 0.000000
vt 0.780822 0.000000
vt 0.842466 0.000000
vt 0.787671 0.000000
vt 0.794521 0.000000
vt 0.801370 0.000000
vt 0.808219 0.000000
vt 0.835616 0.000000
vt 0.815068 0.000000
vt 0.821918 0.000000
vt 0.828767 0.000000
vt 0.102740 0.000000
vt 0.109589 0.000000
vt 0.116438 0.000000
vt 0.123288 0.000000
vt 0.130137 0.000000
vt 0.136986 0.000000
vt 0.232877 0.000000
vt 0.226027 0.000000
vt 0.219178 0.000000
vt 0.143836 0.000000
vt 0.212329 0.000000
vt 0.205479 0.000000
vt 0.198630 0.000000
vt 0.150685 0.000000
vt 0.191781 0.000000
vt 0.184932 0.000000
vt 0.178082 0.000000
vt 0.157534 0.000000
vt 0.171233 0.000000
vt 0.164384 0.000000
vt 0.000000 1.000000
vt 0.016393 1.000000
vt 0.016393 0.000000
vt 0.032787 1.000000
vt 0.032787 0.000000
vt 0.049180 1.000000
vt 0.049180 0.000000
vt 0.065574 1.000000
vt 0.065574 0.000000
vt 0.081967 1.000000
vt 0.081967 0.000000
vt 0.098361 1.000000
vt 0.098361 0.000000
vt 0.114754 1.000000
vt 0.114754 0.000000
vt 0.131148 1.000000
vt 0.131148 0.000000
vt 0.147541 1.000000
vt 0.147541 0.000000
vt 0.163934 1.000000
vt 0.163934 0.000000
vt 0.180328 1.000000
vt 0.180328 0.000000
vt 0.196721 1.000000
vt 0.196721 0.000000
vt 0.213115 1.000000
vt 0.213115 0.000000
vt 0.229508 1.000000
vt 0.229508 0.000000
vt 0.245902 1.000000
vt 0.245902 0.000000
vt 0.262295 1.000000
vt 0.262295 0.000000
vt 0.278689 1.000000
vt 0.278689 0.000000
vt 0.295082 1.000000
vt 0.295082 0.000000
vt 0.311475 1.000000
vt 0.311475 0.000000
vt 0.327869 1.000000
vt 0.327869 0.000000
vt 0.344262 1.000000
vt 0.344262 0.000000
vt 0.360656 1.000000
vt 0.360656 0.000000
vt 0.377049 1.000000
vt 0.377049 0.000000
vt 0.393443 1.000000
vt 0.393443 0.000000
vt 0.409836 1.000000
vt 0.409836 0.000000
vt 0.426230 1.000000
vt 0.426230 0.000000
vt 0.442623 1.000000
vt 0.442623 0.000000
vt 0.459016 1.000000
vt 0.459016 0.000000
vt 0.475410 1.000000
vt 0.475410 0.000000
vt 0.491803 1.000000
vt 0.491803 0.000000
vt 0.508197 1.000000
vt 0.508197 0.000000
vt 0.524590 1.000000
vt 0.524590 0.000000
vt 0.540984 1.000000
vt 0.540984 0.000000
vt 0.557377 1.000000
vt 0.557377 0.000000
vt 0.573770 1.000000
vt 0.573770 0.000000
vt 0.590164 1.000000
vt 0.590164 0.000000
vt 0.606557 1.000000
vt 0.606557 0.000000
vt 0.622951 1.000000
vt 0.622951 0.000000
vt 0.639344 1.000000
vt 0.639344 0.000000
vt 0.655738 1.000000
vt 0.655738 0.000000
vt 0.672131 1.000000
vt 0.672131 0.000000
vt 0.688525 1.000000
vt 0.688525 0.000000
vt 0.704918 1.000000
vt 0.704918 0.000000
vt 0.721311 1.000000
vt 0.721311 0.000000
vt 0.737705 1.000000
vt 0.737705 0.000000
vt 0.754098 1.000000
vt 0.754098 0.000000
vt 0.770492 1.000000
vt 0.770492 0.000000
vt 0.786885 1.000000
vt 0.786885 0.000000
vt 0.803279 1.000000
vt 0.803279 0.000000
vt 0.819672 1.000000
vt 0.819672 0.000000
vt 0.836066 1.000000
vt 0.836066 0.000000
vt 0.852459 1.000000
vt 0.852459 0.000000
vt 0.868852 1.000000
vt 0.868852 0.000000
vt 0.885246 1.000000
vt 0.885246 0.000000
vt 0.901639 1.000000
vt 0.901639 0.000000
vt 0.918033 1.000000
vt 0.918033 0.000000
vt 0.934426 1.000000
vt 0.934426 0.000000
vt 0.950820 1.000000
vt 0.950820 0.000000
vt 0.967213 1.000000
vt 0.967213 0.000000
vt 0.983607 1.000000
vt 0.983607 0.000000
vt 1.000000 1.000000
vt 0.011628 1.000000
vt 0.011628 0.000000
vt 0.023256 1.000000
vt 0.023256 0.000000
vt 0.034884 1.000000
vt 0.034884 0.000000
vt 0.046512 1.000000
vt 0.046512 0.000000
vt 0.058140 1.000000
vt 0.058140 0.000000
vt 0.069767 1.000000
vt 0.069767 0.000000
vt 0.081395 1.000000
vt 0.081395 0.000000
vt 0.093023 1.000000
vt 0.093023 0.000000
vt 0.104651 1.000000
vt 0.104651 0.000000
vt 0.116279 1.000000
vt 0.116279 0.000000
vt 0.127907 1.000000
vt 0.127907 0.000000
vt 0.139535 1.000000
vt 0.139535 0.000000
vt 0.151163 1.000000
vt 0.151163 0.000000
vt 0.162791 1.000000
vt 0.162791 0.000000
vt 0.174419 1.000000
vt 0.174419 0.000000
vt 0.186047 1.000000
vt 0.186047 0.000000
vt 0.197674 1.000000
vt 0.197674 0.000000
vt 0.209302 1.000000
vt 0.209302 0.000000
vt 0.220930 1.000000
vt 0.220930 0.000000
vt 0.232558 1.000000
vt 0.232558 0.000000
vt 0.244186 1.000000
vt 0.244186 0.000000
vt 0.255814 1.000000
vt 0.255814 0.000000
vt 0.267442 1.000000
vt 0.267442 0.000000
vt 0.279070 1.000000
vt 0.279070 0.000000
vt 0.290698 1.000000
vt 0.290698 0.000000
vt 0.302326 1.000000
vt 0.302326 0.000000
vt 0.313953 1.000000
vt 0.313953 0.000000
vt 0.325581 1.000000
vt 0.325581 0.000000
vt 0.337209 1.000000
vt 0.337209 0.000000
vt 0.348837 1.000000
vt 0.348837 0.000000
vt 0.360465 1.000000
vt 0.360465 0.000000
vt 0.372093 1.000000
vt 0.372093 0.000000
vt 0.383721 1.000000
vt 0.383721 0.000000
vt 0.395349 1.000000
vt 0.395349 0.000000
vt 0.406977 1.000000
vt 0.406977 0.000000
vt 0.418605 1.000000
vt 0.418605 0.000000
vt 0.430233 1.000000
vt 0.430233 0.000000
vt 0.441860 1.000000
vt 0.441860 0.000000
vt 0.453488 1.000000
vt 0.453488 0.000000
vt 0.465116 1.000000
vt 0.465116 0.000000
vt 0.476744 1.000000
vt 0.476744 0.000000
vt 0.488372 1.000000
vt 0.488372 0.000000
vt 0.500000 1.000000
vt 0.511628 1.000000
vt 0.511628 0.000000
vt 0.523256 1.000000
vt 0.523256 0.000000
vt 0.534884 1.000000
vt 0.534884 0.000000
vt 0.546512 1.000000
vt 0.546512 0.000000
vt 0.558140 1.000000
vt 0.558140 0.000000
vt 0.569767 1.000000
vt 0.569767 0.000000
vt 0.581395 1.000000
vt 0.581395 0.000000
vt 0.593023 1.000000
vt 0.593023 0.000000
vt 0.604651 1.000000
vt 0.604651 0.000000
vt 0.616279 1.000000
vt 0.616279 0.000000
vt 0.627907 1.000000
vt 0.627907 0.000000
vt 0.639535 1.000000
vt 0.639535 0.000000
vt 0.651163 1.000000
vt 0.651163 0.000000
vt 0.662791 1.000000
vt 0.662791 0.000000
vt 0.674419 1.000000
vt 0.674419 0.000000
vt 0.686047 1.000000
vt 0.686047 0.000000
vt 0.697674 1.000000
vt 0.697674 0.000000
vt 0.709302 1.000000
vt 0.709302 0.000000
vt 0.720930 1.000000
vt 0.720930 0.000000
vt 0.732558 1.000000
vt 0.732558 0.000000
vt 0.744186 1.000000
vt 0.744186 0.000000
vt 0.755814 1.000000
vt 0.755814 0.000000
vt 0.767442 1.000000
vt 0.767442 0.000000
vt 0.779070 1.000000
vt 0.779070 0.000000
vt 0.790698 1.000000
vt 0.790698 0.000000
vt 0.802326 1.000000
vt 0.802326 0.000000
vt 0.813953 1.000000
vt 0.813953 0.000000
vt 0.825581 1.000000
vt 0.825581 0.000000
vt 0.837209 1.000000
vt 0.837209 0.000000
vt 0.848837 1.000000
vt 0.848837 0.000000
vt 0.860465 1.000000
vt 0.860465 0.000000
vt 0.872093 1.000000
vt 0.872093 0.000000
vt 0.883721 1.000000
vt 0.883721 0.000000
vt 0.895349 1.000000
vt 0.895349 0.000000
vt 0.906977 1.000000
vt 0.906977 0.000000
vt 0.918605 1.000000
vt 0.918605 0.000000
vt 0.930233 1.000000
vt 0.930233 0.000000
vt 0.941860 1.000000
vt 0.941860 0.000000
vt 0.953488 1.000000
vt 0.953488 0.000000
vt 0.965116 1.000000
vt 0.965116 0.000000
vt 0.976744 1.000000
vt 0.976744 0.000000
vt 0.988372 1.000000
vt 0.988372 0.000000
vt 0.011111 1.000000
vt 0.011111 0.000000
vt 0.022222 1.000000
vt 0.022222 0.000000
vt 0.033333 1.000000
vt 0.033333 0.000000
vt 0.044444 1.000000
vt 0.044444 0.000000
vt 0.055556 1.000000
vt 0.055556 0.000000
vt 0.066667 1.000000
vt 0.066667 0.000000
vt 0.077778 1.000000
vt 0.077778 0.000000
vt 0.088889 1.000000
vt 0.088889 0.000000
vt 0.100000 1.000000
vt 0.100000 0.000000
vt 0.111111 1.000000
vt 0.111111 0.000000
vt 0.122222 1.000000
vt 0.122222 0.000000
vt 0.133333 1.000000
vt 0.133333 0.000000
vt 0.144444 1.000000
vt 0.144444 0.000000
vt 0.155556 1.000000
vt 0.155556 0.000000
vt 0.166667 1.000000
vt 0.166667 0.000000
vt 0.177778 1.000000
vt 0.177778 0.000000
vt 0.188889 1.000000
vt 0.188889 0.000000
vt 0.200000 1.000000
vt 0.200000 0.000000
vt 0.211111 1.000000
vt 0.211111 0.000000
vt 0.222222 1.000000
vt 0.222222 0.000000
vt 0.233333 1.000000
vt 0.233333 0.000000
vt 0.244444 1.000000
vt 0.244444 0.000000
vt 0.255556 1.000000
vt 0.255556 0.000000
vt 0.266667 1.000000
vt 0.266667 0.000000
vt 0.277778 1.000000
vt 0.277778 0.000000
vt 0.288889 1.000000
vt 0.288889 0.000000
vt 0.300000 1.000000
vt 0.300000 0.000000
vt 0.311111 1.000000
vt 0.311111 0.000000
vt 0.322222 1.000000
vt 0.322222 0.000000
vt 0.333333 1.000000
vt 0.344444 1.000000
vt 0.344444 0.000000
vt 0.355556 1.000000
vt 0.355556 0.000000
vt 0.366667 1.000000
vt 0.366667 0.000000
vt 0.377778 1.000000
vt 0.377778 0.000000
vt 0.388889 1.000000
vt 0.388889 0.000000
vt 0.400000 1.000000
vt 0.400000 0.000000
vt 0.411111 1.000000
vt 0.411111 0.000000
vt 0.422222 1.000000
vt 0.422222 0.000000
vt 0.433333 1.000000
vt 0.433333 0.000000
vt 0.444444 1.000000
vt 0.444444 0.000000
vt 0.455556 1.000000
vt 0.455556 0.000000
vt 0.466667 1.000000
vt 0.466667 0.000000
vt 0.477778 1.000000
vt 0.477778 0.000000
vt 0.488889 1.000000
vt 0.488889 0.000000
vt 0.511111 1.000000
vt 0.511111 0.000000
vt 0.522222 1.000000
vt 0.522222 0.000000
vt 0.533333 1.000000
vt 0.533333 0.000000
vt 0.544444 1.000000
vt 0.544444 0.000000
vt 0.555556 1.000000
vt 0.555556 0.000000
vt 0.566667 1.000000
vt 0.566667 0.000000
vt 0.577778 1.000000
vt 0.577778 0.000000
vt 0.588889 1.000000
vt 0.588889 0.000000
vt 0.600000 1.000000
vt 0.600000 0.000000
vt 0.611111 1.000000
vt 0.611111 0.000000
vt 0.622222 1.000000
vt 0.622222 0.000000
vt 0.633333 1.000000
vt 0.633333 0.000000
vt 0.644444 1.000000
vt 0.644444 0.000000
vt 0.655556 1.000000
vt 0.655556 0.000000
vt 0.666667 1.000000
vt 0.677778 1.000000
vt 0.677778 0.000000
vt 0.688889 1.000000
vt 0.688889 0.000000
vt 0.700000 1.000000
vt 0.700000 0.000000
vt 0.711111 1.000000
vt 0.711111 0.000000
vt 0.722222 1.000000
vt 0.722222 0.000000
vt 0.733333 1.000000
vt 0.733333 0.000000
vt 0.744444 1.000000
vt 0.744444 0.000000
vt 0.755556 1.000000
vt 0.755556 0.000000
vt 0.766667 1.000000
vt 0.766667 0.000000
vt 0.777778 1.000000
vt 0.777778 0.000000
vt 0.788889 1.000000
vt 0.788889 0.000000
vt 0.800000 1.000000
vt 0.800000 0.000000
vt 0.811111 1.000000
vt 0.811111 0.000000
vt 0.822222 1.000000
vt 0.822222 0.000000
vt 0.833333 1.000000
vt 0.833333 0.000000
vt 0.844444 1.000000
vt 0.844444 0.000000
vt 0.855556 1.000000
vt 0.855556 0.000000
vt 0.866667 1.000000
vt 0.866667 0.000000
vt 0.877778 1.000000
vt 0.877778 0.000000
vt 0.888889 1.000000
vt 0.888889 0.000000
vt 0.900000 1.000000
vt 0.900000 0.000000
vt 0.911111 1.000000
vt 0.911111 0.000000
vt 0.922222 1.000000
vt 0.922222 0.000000
vt 0.933333 1.000000
vt 0.933333 0.000000
vt 0.944444 1.000000
vt 0.944444 0.000000
vt 0.955556 1.000000
vt 0.955556 0.000000
vt 0.966667 1.000000
vt 0.966667 0.000000
vt 0.977778 1.000000
vt 0.977778 0.000000
vt 0.988889 1.000000
vt 0.988889 0.000000
vt 0.025641 1.000000
vt 0.025641 0.000000
vt 0.051282 1.000000
vt 0.051282 0.000000
vt 0.076923 1.000000
vt 0.076923 0.000000
vt 0.102564 1.000000
vt 0.102564 0.000000
vt 0.128205 1.000000
vt 0.128205 0.000000
vt 0.153846 1.000000
vt 0.153846 0.000000
vt 0.179487 1.000000
vt 0.179487 0.000000
vt 0.205128 1.000000
vt 0.205128 0.000000
vt 0.230769 1.000000
vt 0.230769 0.000000
vt 0.256410 1.000000
vt 0.256410 0.000000
vt 0.282051 1.000000
vt 0.282051 0.000000
vt 0.307692 1.000000
vt 0.307692 0.000000
vt 0.358974 1.000000
vt 0.358974 0.000000
vt 0.384615 1.000000
vt 0.384615 0.000000
vt 0.410256 1.000000
vt 0.410256 0.000000
vt 0.435897 1.000000
vt 0.435897 0.000000
vt 0.461538 1.000000
vt 0.461538 0.000000
vt 0.487179 1.000000
vt 0.487179 0.000000
vt 0.512821 1.000000
vt 0.512821 0.000000
vt 0.538462 1.000000
vt 0.538462 0.000000
vt 0.564103 1.000000
vt 0.564103 0.000000
vt 0.589744 1.000000
vt 0.589744 0.000000
vt 0.615385 1.000000
vt 0.615385 0.000000
vt 0.641026 1.000000
vt 0.641026 0.000000
vt 0.692308 1.000000
vt 0.692308 0.000000
vt 0.717949 1.000000
vt 0.717949 0.000000
vt 0.743590 1.000000
vt 0.743590 0.000000
vt 0.769231 1.000000
vt 0.769231 0.000000
vt 0.794872 1.000000
vt 0.794872 0.000000
vt 0.820513 1.000000
vt 0.820513 0.000000
vt 0.846154 1.000000
vt 0.846154 0.000000
vt 0.871795 1.000000
vt 0.871795 0.000000
vt 0.897436 1.000000
vt 0.897436 0.000000
vt 0.923077 1.000000
vt 0.923077 0.000000
vt 0.948718 1.000000
vt 0.948718 0.000000
vt 0.974359 1.000000
vt 0.974359 0.000000
vt 0.250000 1.000000
vt 0.750000 1.000000
vt 0.083333 1.000000
vt 0.083333 0.000000
vt 0.416667 1.000000
vt 0.416667 0.000000
vt 0.583333 1.000000
vt 0.583333 0.000000
vt 0.916667 1.000000
vt 0.916667 0.000000
s 0
usemtl Material.002
f 8/1/1 12/2/1 9/3/1
f 12/2/1 10/4/1 9/3/1
f 12/2/1 11/5/1 10/4/1
f 8/1/1 1/6/1 12/2/1
f 8/1/1 4/7/1 1/6/1
f 4/7/1 2/8/1 1/6/1
f 4/7/1 3/9/1 2/8/1
f 8/1/1 5/10/1 4/7/1
f 8/1/1 6/11/1 5/10/1
f 8/1/1 7/12/1 6/11/1
f 14/13/1 16/14/1 15/15/1
f 14/13/1 17/16/1 16/14/1
f 28/17/1 30/2/1 29/18/1
f 28/17/1 13/6/1 30/2/1
f 27/19/1 13/6/1 28/17/1
f 26/20/1 13/6/1 27/19/1
f 25/21/1 13/6/1 26/20/1
f 24/22/1 13/6/1 25/21/1
f 23/23/1 13/6/1 24/22/1
f 22/24/1 13/6/1 23/23/1
f 21/25/1 13/6/1 22/24/1
f 20/26/1 13/6/1 21/25/1
f 19/27/1 13/6/1 20/26/1
f 18/28/1 13/6/1 19/27/1
f 17/16/1 13/6/1 18/28/1
f 14/13/1 13/6/1 17/16/1
f 32/29/1 34/2/1 33/30/1
f 32/29/1 31/6/1 34/2/1
f 62/31/1 149/32/1 63/33/1
f 149/32/1 64/34/1 63/33/1
f 149/32/1 65/35/1 64/34/1
f 149/32/1 66/36/1 65/35/1
f 149/32/1 67/37/1 66/36/1
f 149/32/1 68/38/1 67/37/1
f 149/32/1 69/39/1 68/38/1
f 149/32/1 70/40/1 69/39/1
f 149/32/1 71/41/1 70/40/1
f 149/32/1 72/42/1 71/41/1
f 149/32/1 73/43/1 72/42/1
f 149/32/1 74/44/1 73/43/1
f 149/32/1 75/45/1 74/44/1
f 149/32/1 76/46/1 75/45/1
f 149/32/1 77/47/1 76/46/1
f 149/32/1 78/48/1 77/47/1
f 149/32/1 79/49/1 78/48/1
f 149/32/1 80/50/1 79/49/1
f 149/32/1 81/51/1 80/50/1
f 149/32/1 82/52/1 81/51/1
f 149/32/1 83/53/1 82/52/1
f 149/32/1 148/54/1 83/53/1
f 148/54/1 84/55/1 83/53/1
f 62/31/1 150/56/1 149/32/1
f 147/57/1 84/55/1 148/54/1
f 146/58/1 84/55/1 147/57/1
f 146/58/1 145/59/1 84/55/1
f 145/59/1 144/60/1 84/55/1
f 144/60/1 85/61/1 84/55/1
f 143/62/1 85/61/1 144/60/1
f 142/63/1 85/61/1 143/62/1
f 141/64/1 85/61/1 142/63/1
f 140/65/1 85/61/1 141/64/1
f 140/65/1 86/66/1 85/61/1
f 139/67/1 86/66/1 140/65/1
f 138/68/1 86/66/1 139/67/1
f 138/68/1 87/69/1 86/66/1
f 137/70/1 87/69/1 138/68/1
f 137/70/1 88/71/1 87/69/1
f 136/72/1 88/71/1 137/70/1
f 135/73/1 88/71/1 136/72/1
f 135/73/1 89/74/1 88/71/1
f 134/75/1 89/74/1 135/73/1
f 133/76/1 89/74/1 134/75/1
f 133/76/1 90/77/1 89/74/1
f 132/78/1 90/77/1 133/76/1
f 131/79/1 90/77/1 132/78/1
f 130/80/1 90/77/1 131/79/1
f 130/80/1 91/81/1 90/77/1
f 129/82/1 91/81/1 130/80/1
f 128/83/1 91/81/1 129/82/1
f 127/84/1 91/81/1 128/83/1
f 126/85/1 91/81/1 127/84/1
f 126/85/1 92/86/1 91/81/1
f 125/87/1 92/86/1 126/85/1
f 163/2/1 92/86/1 125/87/1
f 162/88/1 92/86/1 163/2/1
f 161/89/1 92/86/1 162/88/1
f 160/90/1 92/86/1 161/89/1
f 159/91/1 92/86/1 160/90/1
f 158/92/1 92/86/1 159/91/1
f 158/92/1 93/93/1 92/86/1
f 157/94/1 93/93/1 158/92/1
f 156/95/1 93/93/1 157/94/1
f 155/96/1 93/93/1 156/95/1
f 154/97/1 93/93/1 155/96/1
f 153/98/1 93/93/1 154/97/1
f 152/99/1 93/93/1 153/98/1
f 151/100/1 93/93/1 152/99/1
f 62/31/1 60/101/1 150/56/1
f 60/101/1 151/100/1 150/56/1
f 60/101/1 93/93/1 151/100/1
f 60/101/1 94/102/1 93/93/1
f 60/101/1 95/103/1 94/102/1
f 60/101/1 96/104/1 95/103/1
f 60/101/1 97/105/1 96/104/1
f 60/101/1 98/106/1 97/105/1
f 60/101/1 99/107/1 98/106/1
f 60/101/1 100/108/1 99/107/1
f 60/101/1 101/109/1 100/108/1
f 60/101/1 102/110/1 101/109/1
f 60/101/1 103/111/1 102/110/1
f 60/101/1 104/112/1 103/111/1
f 60/101/1 105/113/1 104/112/1
f 60/101/1 106/114/1 105/113/1
f 60/101/1 47/115/1 106/114/1
f 47/115/1 107/116/1 106/114/1
f 60/101/1 48/117/1 47/115/1
f 46/118/1 107/116/1 47/115/1
f 60/101/1 49/119/1 48/117/1
f 60/101/1 50/120/1 49/119/1
f 60/101/1 51/121/1 50/120/1
f 60/101/1 52/122/1 51/121/1
f 60/101/1 53/123/1 52/122/1
f 60/101/1 54/124/1 53/123/1
f 60/101/1 55/125/1 54/124/1
f 60/101/1 56/126/1 55/125/1
f 60/101/1 57/127/1 56/126/1
f 60/101/1 58/128/1 57/127/1
f 60/101/1 59/129/1 58/128/1
f 62/31/1 61/130/1 60/101/1
f 46/118/1 108/131/1 107/116/1
f 46/118/1 109/132/1 108/131/1
f 46/118/1 110/133/1 109/132/1
f 46/118/1 111/134/1 110/133/1
f 46/118/1 112/135/1 111/134/1
f 46/118/1 113/136/1 112/135/1
f 45/137/1 113/136/1 46/118/1
f 45/137/1 114/138/1 113/136/1
f 44/139/1 114/138/1 45/137/1
f 44/139/1 115/140/1 114/138/1
f 43/141/1 115/140/1 44/139/1
f 43/141/1 116/142/1 115/140/1
f 42/143/1 116/142/1 43/141/1
f 42/143/1 117/144/1 116/142/1
f 41/145/1 117/144/1 42/143/1
f 41/145/1 118/146/1 117/144/1
f 40/147/1 118/146/1 41/145/1
f 40/147/1 119/148/1 118/146/1
f 39/149/1 119/148/1 40/147/1
f 39/149/1 120/150/1 119/148/1
f 38/151/1 120/150/1 39/149/1
f 38/151/1 121/152/1 120/150/1
f 37/153/1 121/152/1 38/151/1
f 37/153/1 122/154/1 121/152/1
f 36/155/1 122/154/1 37/153/1
f 36/155/1 123/156/1 122/154/1
f 36/155/1 124/157/1 123/156/1
f 35/6/1 124/157/1 36/155/1
f 211/158/1 213/159/1 212/160/1
f 210/161/1 213/159/1 211/158/1
f 209/162/1 213/159/1 210/161/1
f 208/163/1 213/159/1 209/162/1
f 207/164/1 213/159/1 208/163/1
f 207/164/1 214/165/1 213/159/1
f 206/166/1 214/165/1 207/164/1
f 205/167/1 214/165/1 206/166/1
f 204/168/1 214/165/1 205/167/1
f 203/169/1 214/165/1 204/168/1
f 203/169/1 215/170/1 214/165/1
f 202/171/1 215/170/1 203/169/1
f 201/172/1 215/170/1 202/171/1
f 200/173/1 215/170/1 201/172/1
f 199/174/1 273/175/1 200/173/1
f 273/175/1 215/170/1 200/173/1
f 273/175/1 216/176/1 215/170/1
f 273/175/1 217/177/1 216/176/1
f 273/175/1 218/178/1 217/177/1
f 273/175/1 272/179/1 218/178/1
f 272/179/1 271/180/1 218/178/1
f 271/180/1 270/181/1 218/178/1
f 270/181/1 269/182/1 218/178/1
f 269/182/1 268/183/1 218/178/1
f 268/183/1 267/184/1 218/178/1
f 267/184/1 266/185/1 218/178/1
f 266/185/1 265/186/1 218/178/1
f 265/186/1 264/187/1 218/178/1
f 264/187/1 263/188/1 218/178/1
f 263/188/1 219/189/1 218/178/1
f 263/188/1 262/190/1 219/189/1
f 262/190/1 261/191/1 219/189/1
f 261/191/1 260/192/1 219/189/1
f 260/192/1 259/193/1 219/189/1
f 259/193/1 220/194/1 219/189/1
f 258/195/1 220/194/1 259/193/1
f 199/174/1 274/196/1 273/175/1
f 257/197/1 220/194/1 258/195/1
f 256/198/1 220/194/1 257/197/1
f 255/199/1 220/194/1 256/198/1
f 254/200/1 220/194/1 255/199/1
f 254/200/1 221/201/1 220/194/1
f 253/202/1 221/201/1 254/200/1
f 252/203/1 221/201/1 253/202/1
f 251/204/1 221/201/1 252/203/1
f 250/205/1 221/201/1 251/204/1
f 250/205/1 222/206/1 221/201/1
f 249/207/1 222/206/1 250/205/1
f 248/208/1 222/206/1 249/207/1
f 247/209/1 222/206/1 248/208/1
f 246/210/1 222/206/1 247/209/1
f 246/210/1 223/211/1 222/206/1
f 245/212/1 223/211/1 246/210/1
f 244/213/1 223/211/1 245/212/1
f 243/214/1 223/211/1 244/213/1
f 242/215/1 223/211/1 243/214/1
f 242/215/1 224/216/1 223/211/1
f 241/217/1 224/216/1 242/215/1
f 240/218/1 224/216/1 241/217/1
f 239/219/1 224/216/1 240/218/1
f 238/220/1 224/216/1 239/219/1
f 237/107/1 224/216/1 238/220/1
f 236/221/1 224/216/1 237/107/1
f 236/221/1 164/6/1 224/216/1
f 235/222/1 164/6/1 236/221/1
f 234/223/1 164/6/1 235/222/1
f 234/223/1 165/224/1 164/6/1
f 233/225/1 165/224/1 234/223/1
f 232/226/1 165/224/1 233/225/1
f 232/226/1 166/227/1 165/224/1
f 231/228/1 166/227/1 232/226/1
f 230/229/1 166/227/1 231/228/1
f 230/229/1 167/230/1 166/227/1
f 229/231/1 167/230/1 230/229/1
f 228/232/1 167/230/1 229/231/1
f 228/232/1 168/233/1 167/230/1
f 227/234/1 168/233/1 228/232/1
f 226/235/1 168/233/1 227/234/1
f 225/236/1 168/233/1 226/235/1
f 225/236/1 169/237/1 168/233/1
f 310/2/1 169/237/1 225/236/1
f 309/238/1 169/237/1 310/2/1
f 308/239/1 169/237/1 309/238/1
f 308/239/1 170/240/1 169/237/1
f 307/241/1 170/240/1 308/239/1
f 306/242/1 170/240/1 307/241/1
f 305/243/1 170/240/1 306/242/1
f 304/244/1 170/240/1 305/243/1
f 304/244/1 171/245/1 170/240/1
f 303/246/1 171/245/1 304/244/1
f 302/247/1 171/245/1 303/246/1
f 301/248/1 171/245/1 302/247/1
f 301/248/1 172/249/1 171/245/1
f 300/250/1 172/249/1 301/248/1
f 299/251/1 172/249/1 300/250/1
f 298/252/1 172/249/1 299/251/1
f 298/252/1 173/253/1 172/249/1
f 297/254/1 173/253/1 298/252/1
f 297/254/1 174/255/1 173/253/1
f 297/254/1 175/256/1 174/255/1
f 297/254/1 176/257/1 175/256/1
f 296/258/1 176/257/1 297/254/1
f 295/259/1 176/257/1 296/258/1
f 294/260/1 176/257/1 295/259/1
f 294/260/1 177/261/1 176/257/1
f 293/262/1 177/261/1 294/260/1
f 292/263/1 177/261/1 293/262/1
f 291/264/1 177/261/1 292/263/1
f 291/264/1 178/265/1 177/261/1
f 290/266/1 178/265/1 291/264/1
f 289/267/1 178/265/1 290/266/1
f 288/268/1 178/265/1 289/267/1
f 199/174/1 275/269/1 274/196/1
f 199/174/1 276/270/1 275/269/1
f 199/174/1 277/271/1 276/270/1
f 199/174/1 278/272/1 277/271/1
f 287/273/1 178/265/1 288/268/1
f 199/174/1 279/274/1 278/272/1
f 199/174/1 280/275/1 279/274/1
f 199/174/1 281/276/1 280/275/1
f 199/174/1 282/277/1 281/276/1
f 286/278/1 178/265/1 287/273/1
f 199/174/1 283/279/1 282/277/1
f 199/174/1 284/280/1 283/279/1
f 199/174/1 285/281/1 284/280/1
f 199/174/1 286/278/1 285/281/1
f 199/174/1 178/265/1 286/278/1
f 199/174/1 179/282/1 178/265/1
f 199/174/1 180/283/1 179/282/1
f 199/174/1 181/284/1 180/283/1
f 199/174/1 182/285/1 181/284/1
f 199/174/1 183/286/1 182/285/1
f 199/174/1 184/287/1 183/286/1
f 198/288/1 184/287/1 199/174/1
f 197/289/1 184/287/1 198/288/1
f 196/290/1 184/287/1 197/289/1
f 196/290/1 185/291/1 184/287/1
f 195/292/1 185/291/1 196/290/1
f 194/293/1 185/291/1 195/292/1
f 193/294/1 185/291/1 194/293/1
f 193/294/1 186/295/1 185/291/1
f 192/296/1 186/295/1 193/294/1
f 191/297/1 186/295/1 192/296/1
f 190/298/1 186/295/1 191/297/1
f 190/298/1 187/299/1 186/295/1
f 189/300/1 187/299/1 190/298/1
f 188/301/1 187/299/1 189/300/1
f 318/1/2 319/3/2 322/2/2
f 322/2/2 319/3/2 320/4/2
f 322/2/2 320/4/2 321/5/2
f 318/1/2 322/2/2 311/6/2
f 318/1/2 311/6/2 314/7/2
f 314/7/2 311/6/2 312/8/2
f 314/7/2 312/8/2 313/9/2
f 318/1/2 314/7/2 315/10/2
f 318/1/2 315/10/2 316/11/2
f 318/1/2 316/11/2 317/12/2
f 324/13/2 325/15/2 326/14/2
f 324/13/2 326/14/2 327/16/2
f 338/17/2 339/18/2 340/2/2
f 338/17/2 340/2/2 323/6/2
f 337/19/2 338/17/2 323/6/2
f 336/20/2 337/19/2 323/6/2
f 335/21/2 336/20/2 323/6/2
f 334/22/2 335/21/2 323/6/2
f 333/23/2 334/22/2 323/6/2
f 332/24/2 333/23/2 323/6/2
f 331/25/2 332/24/2 323/6/2
f 330/26/2 331/25/2 323/6/2
f 329/27/2 330/26/2 323/6/2
f 328/28/2 329/27/2 323/6/2
f 327/16/2 328/28/2 323/6/2
f 324/13/2 327/16/2 323/6/2
f 342/29/2 343/30/2 344/2/2
f 342/29/2 344/2/2 341/6/2
f 372/31/2 373/33/2 459/32/2
f 459/32/2 373/33/2 374/34/2
f 459/32/2 374/34/2 375/35/2
f 459/32/2 375/35/2 376/36/2
f 459/32/2 376/36/2 377/37/2
f 459/32/2 377/37/2 378/38/2
f 459/32/2 378/38/2 379/39/2
f 459/32/2 379/39/2 380/40/2
f 459/32/2 380/40/2 381/41/2
f 459/32/2 381/41/2 382/42/2
f 459/32/2 382/42/2 383/43/2
f 459/32/2 383/43/2 384/44/2
f 459/32/2 384/44/2 385/45/2
f 459/32/2 385/45/2 386/46/2
f 459/32/2 386/46/2 387/47/2
f 459/32/2 387/47/2 388/48/2
f 459/32/2 388/48/2 389/49/2
f 459/32/2 389/49/2 390/50/2
f 459/32/2 390/50/2 391/51/2
f 459/32/2 391/51/2 392/52/2
f 459/32/2 392/52/2 393/53/2
f 459/32/2 393/53/2 458/54/2
f 458/54/2 393/53/2 394/55/2
f 372/31/2 459/32/2 460/56/2
f 457/57/2 458/54/2 394/55/2
f 456/58/2 457/57/2 394/55/2
f 456/58/2 394/55/2 455/59/2
f 455/59/2 394/55/2 454/60/2
f 454/60/2 394/55/2 395/61/2
f 453/62/2 454/60/2 395/61/2
f 452/63/2 453/62/2 395/61/2
f 451/64/2 452/63/2 395/61/2
f 450/65/2 451/64/2 395/61/2
f 450/65/2 395/61/2 396/66/2
f 449/67/2 450/65/2 396/66/2
f 448/68/2 449/67/2 396/66/2
f 448/68/2 396/66/2 397/69/2
f 447/70/2 448/68/2 397/69/2
f 447/70/2 397/69/2 398/71/2
f 446/72/2 447/70/2 398/71/2
f 445/73/2 446/72/2 398/71/2
f 445/73/2 398/71/2 399/74/2
f 444/75/2 445/73/2 399/74/2
f 443/76/2 444/75/2 399/74/2
f 443/76/2 399/74/2 400/77/2
f 442/78/2 443/76/2 400/77/2
f 441/79/2 442/78/2 400/77/2
f 440/80/2 441/79/2 400/77/2
f 440/80/2 400/77/2 401/81/2
f 439/82/2 440/80/2 401/81/2
f 438/83/2 439/82/2 401/81/2
f 437/84/2 438/83/2 401/81/2
f 436/85/2 437/84/2 401/81/2
f 436/85/2 401/81/2 402/86/2
f 435/87/2 436/85/2 402/86/2
f 473/2/2 435/87/2 402/86/2
f 472/88/2 473/2/2 402/86/2
f 471/89/2 472/88/2 402/86/2
f 470/90/2 471/89/2 402/86/2
f 469/91/2 470/90/2 402/86/2
f 468/92/2 469/91/2 402/86/2
f 468/92/2 402/86/2 403/93/2
f 467/94/2 468/92/2 403/93/2
f 466/95/2 467/94/2 403/93/2
f 465/96/2 466/95/2 403/93/2
f 464/97/2 465/96/2 403/93/2
f 463/98/2 464/97/2 403/93/2
f 462/99/2 463/98/2 403/93/2
f 461/100/2 462/99/2 403/93/2
f 372/31/2 460/56/2 370/101/2
f 370/101/2 460/56/2 461/100/2
f 370/101/2 461/100/2 403/93/2
f 370/101/2 403/93/2 404/102/2
f 370/101/2 404/102/2 405/103/2
f 370/101/2 405/103/2 406/104/2
f 370/101/2 406/104/2 407/105/2
f 370/101/2 407/105/2 408/106/2
f 370/101/2 408/106/2 409/107/2
f 370/101/2 409/107/2 410/108/2
f 370/101/2 410/108/2 411/109/2
f 370/101/2 411/109/2 412/110/2
f 370/101/2 412/110/2 413/111/2
f 370/101/2 413/111/2 414/112/2
f 370/101/2 414/112/2 415/113/2
f 370/101/2 415/113/2 416/114/2
f 370/101/2 416/114/2 357/115/2
f 357/115/2 416/114/2 417/116/2
f 370/101/2 357/115/2 358/117/2
f 356/118/2 357/115/2 417/116/2
f 370/101/2 358/117/2 359/119/2
f 370/101/2 359/119/2 360/120/2
f 370/101/2 360/120/2 361/121/2
f 370/101/2 361/121/2 362/122/2
f 370/101/2 362/122/2 363/123/2
f 370/101/2 363/123/2 364/124/2
f 370/101/2 364/124/2 365/125/2
f 370/101/2 365/125/2 366/126/2
f 370/101/2 366/126/2 367/127/2
f 370/101/2 367/127/2 368/128/2
f 370/101/2 368/128/2 369/129/2
f 372/31/2 370/101/2 371/130/2
f 356/118/2 417/116/2 418/131/2
f 356/118/2 418/131/2 419/132/2
f 356/118/2 419/132/2 420/133/2
f 356/118/2 420/133/2 421/134/2
f 356/118/2 421/134/2 422/135/2
f 356/118/2 422/135/2 423/136/2
f 355/137/2 356/118/2 423/136/2
f 355/137/2 423/136/2 424/138/2
f 354/139/2 355/137/2 424/138/2
f 354/139/2 424/138/2 425/140/2
f 353/141/2 354/139/2 425/140/2
f 353/141/2 425/140/2 426/142/2
f 352/143/2 353/141/2 426/142/2
f 352/143/2 426/142/2 427/144/2
f 351/145/2 352/143/2 427/144/2
f 351/145/2 427/144/2 428/146/2
f 350/147/2 351/145/2 428/146/2
f 350/147/2 428/146/2 429/148/2
f 349/149/2 350/147/2 429/148/2
f 349/149/2 429/148/2 430/150/2
f 348/151/2 349/149/2 430/150/2
f 348/151/2 430/150/2 431/152/2
f 347/153/2 348/151/2 431/152/2
f 347/153/2 431/152/2 432/154/2
f 346/155/2 347/153/2 432/154/2
f 346/155/2 432/154/2 433/156/2
f 346/155/2 433/156/2 434/157/2
f 345/6/2 346/155/2 434/157/2
f 521/158/2 522/160/2 523/159/2
f 520/161/2 521/158/2 523/159/2
f 519/162/2 520/161/2 523/159/2
f 518/163/2 519/162/2 523/159/2
f 517/164/2 518/163/2 523/159/2
f 517/164/2 523/159/2 524/165/2
f 516/166/2 517/164/2 524/165/2
f 515/167/2 516/166/2 524/165/2
f 514/168/2 515/167/2 524/165/2
f 513/169/2 514/168/2 524/165/2
f 513/169/2 524/165/2 525/170/2
f 512/171/2 513/169/2 525/170/2
f 511/172/2 512/171/2 525/170/2
f 510/173/2 511/172/2 525/170/2
f 509/174/2 510/173/2 583/175/2
f 583/175/2 510/173/2 525/170/2
f 583/175/2 525/170/2 526/176/2
f 583/175/2 526/176/2 527/177/2
f 583/175/2 527/177/2 528/178/2
f 583/175/2 528/178/2 582/179/2
f 582/179/2 528/178/2 581/180/2
f 581/180/2 528/178/2 580/181/2
f 580/181/2 528/178/2 579/182/2
f 579/182/2 528/178/2 578/183/2
f 578/183/2 528/178/2 577/184/2
f 577/184/2 528/178/2 576/185/2
f 576/185/2 528/178/2 575/186/2
f 575/186/2 528/178/2 574/187/2
f 574/187/2 528/178/2 573/188/2
f 573/188/2 528/178/2 529/189/2
f 573/188/2 529/189/2 572/190/2
f 572/190/2 529/189/2 571/191/2
f 571/191/2 529/189/2 570/192/2
f 570/192/2 529/189/2 569/193/2
f 569/193/2 529/189/2 530/194/2
f 568/195/2 569/193/2 530/194/2
f 509/174/2 583/175/2 584/196/2
f 567/197/2 568/195/2 530/194/2
f 566/198/2 567/197/2 530/194/2
f 565/199/2 566/198/2 530/194/2
f 564/200/2 565/199/2 530/194/2
f 564/200/2 530/194/2 531/201/2
f 563/202/2 564/200/2 531/201/2
f 562/203/2 563/202/2 531/201/2
f 561/204/2 562/203/2 531/201/2
f 560/205/2 561/204/2 531/201/2
f 560/205/2 531/201/2 532/206/2
f 559/207/2 560/205/2 532/206/2
f 558/208/2 559/207/2 532/206/2
f 557/209/2 558/208/2 532/206/2
f 556/210/2 557/209/2 532/206/2
f 556/210/2 532/206/2 533/211/2
f 555/212/2 556/210/2 533/211/2
f 554/213/2 555/212/2 533/211/2
f 553/214/2 554/213/2 533/211/2
f 552/215/2 553/214/2 533/211/2
f 552/215/2 533/211/2 534/216/2
f 551/217/2 552/215/2 534/216/2
f 550/218/2 551/217/2 534/216/2
f 549/219/2 550/218/2 534/216/2
f 548/220/2 549/219/2 534/216/2
f 547/107/2 548/220/2 534/216/2
f 546/221/2 547/107/2 534/216/2
f 546/221/2 534/216/2 474/6/2
f 545/222/2 546/221/2 474/6/2
f 544/223/2 545/222/2 474/6/2
f 544/223/2 474/6/2 475/224/2
f 543/225/2 544/223/2 475/224/2
f 542/226/2 543/225/2 475/224/2
f 542/226/2 475/224/2 476/227/2
f 541/228/2 542/226/2 476/227/2
f 540/229/2 541/228/2 476/227/2
f 540/229/2 476/227/2 477/230/2
f 539/231/2 540/229/2 477/230/2
f 538/232/2 539/231/2 477/230/2
f 538/232/2 477/230/2 478/233/2
f 537/234/2 538/232/2 478/233/2
f 536/235/2 537/234/2 478/233/2
f 535/236/2 536/235/2 478/233/2
f 535/236/2 478/233/2 479/237/2
f 620/2/2 535/236/2 479/237/2
f 619/238/2 620/2/2 479/237/2
f 618/239/2 619/238/2 479/237/2
f 618/239/2 479/237/2 480/240/2
f 617/241/2 618/239/2 480/240/2
f 616/242/2 617/241/2 480/240/2
f 615/243/2 616/242/2 480/240/2
f 614/244/2 615/243/2 480/240/2
f 614/244/2 480/240/2 481/245/2
f 613/246/2 614/244/2 481/245/2
f 612/247/2 613/246/2 481/245/2
f 611/248/2 612/247/2 481/245/2
f 611/248/2 481/245/2 482/249/2
f 610/250/2 611/248/2 482/249/2
f 609/251/2 610/250/2 482/249/2
f 608/252/2 609/251/2 482/249/2
f 608/252/2 482/249/2 483/253/2
f 607/254/2 608/252/2 483/253/2
f 607/254/2 483/253/2 484/255/2
f 607/254/2 484/255/2 485/256/2
f 607/254/2 485/256/2 486/257/2
f 606/258/2 607/254/2 486/257/2
f 605/259/2 606/258/2 486/257/2
f 604/260/2 605/259/2 486/257/2
f 604/260/2 486/257/2 487/261/2
f 603/262/2 604/260/2 487/261/2
f 602/263/2 603/262/2 487/261/2
f 601/264/2 602/263/2 487/261/2
f 601/264/2 487/261/2 488/265/2
f 600/266/2 601/264/2 488/265/2
f 599/267/2 600/266/2 488/265/2
f 598/268/2 599/267/2 488/265/2
f 509/174/2 584/196/2 585/269/2
f 509/174/2 585/269/2 586/270/2
f 509/174/2 586/270/2 587/271/2
f 509/174/2 587/271/2 588/272/2
f 597/273/2 598/268/2 488/265/2
f 509/174/2 588/272/2 589/274/2
f 509/174/2 589/274/2 590/275/2
f 509/174/2 590/275/2 591/276/2
f 509/174/2 591/276/2 592/277/2
f 596/278/2 597/273/2 488/265/2
f 509/174/2 592/277/2 593/279/2
f 509/174/2 593/279/2 594/280/2
f 509/174/2 594/280/2 595/281/2
f 509/174/2 595/281/2 596/278/2
f 509/174/2 596/278/2 488/265/2
f 509/174/2 488/265/2 489/282/2
f 509/174/2 489/282/2 490/283/2
f 509/174/2 490/283/2 491/284/2
f 509/174/2 491/284/2 492/285/2
f 509/174/2 492/285/2 493/286/2
f 509/174/2 493/286/2 494/287/2
f 508/288/2 509/174/2 494/287/2
f 507/289/2 508/288/2 494/287/2
f 506/290/2 507/289/2 494/287/2
f 506/290/2 494/287/2 495/291/2
f 505/292/2 506/290/2 495/291/2
f 504/293/2 505/292/2 495/291/2
f 503/294/2 504/293/2 495/291/2
f 503/294/2 495/291/2 496/295/2
f 502/296/2 503/294/2 496/295/2
f 501/297/2 502/296/2 496/295/2
f 500/298/2 501/297/2 496/295/2
f 500/298/2 496/295/2 497/299/2
f 499/300/2 500/298/2 497/299/2
f 498/301/2 499/300/2 497/299/2
s 1
f 622/302/3 624/303/4 623/304/4 621/6/3
f 624/303/4 626/305/5 625/306/5 623/304/4
f 626/305/5 628/307/6 627/308/6 625/306/5
f 628/307/6 630/309/7 629/310/7 627/308/6
f 630/309/7 632/311/8 631/312/8 629/310/7
f 632/311/8 634/313/9 633/314/9 631/312/8
f 634/313/9 636/315/10 635/316/10 633/314/9
f 636/315/10 638/317/11 637/318/11 635/316/10
f 638/317/11 640/319/12 639/320/12 637/318/11
f 640/319/12 642/321/13 641/322/13 639/320/12
f 642/321/13 644/323/14 643/324/14 641/322/13
f 644/323/14 646/325/15 645/326/15 643/324/14
f 646/325/15 648/327/16 647/328/16 645/326/15
f 648/327/16 650/329/17 649/330/17 647/328/16
f 650/329/17 652/331/18 651/332/18 649/330/17
f 652/331/18 654/333/19 653/334/19 651/332/18
f 654/333/19 656/335/20 655/336/20 653/334/19
f 656/335/20 658/337/21 657/338/21 655/336/20
f 658/337/21 660/339/22 659/340/22 657/338/21
f 660/339/22 662/341/23 661/342/23 659/340/22
f 662/341/23 664/343/24 663/344/24 661/342/23
f 664/343/24 666/345/25 665/346/25 663/344/24
f 666/345/25 668/347/26 667/348/26 665/346/25
f 668/347/26 670/349/27 669/350/27 667/348/26
f 670/349/27 672/351/28 671/352/28 669/350/27
f 672/351/28 674/353/29 673/354/29 671/352/28
f 674/353/29 676/355/30 675/356/30 673/354/29
f 676/355/30 678/357/31 677/358/31 675/356/30
f 678/357/31 680/359/32 679/360/32 677/358/31
f 680/359/32 682/361/33 681/362/33 679/360/32
f 682/361/33 684/363/34 683/364/34 681/362/33
f 684/363/34 686/365/35 685/366/35 683/364/34
f 686/365/35 688/367/36 687/368/36 685/366/35
f 688/367/36 690/369/37 689/370/37 687/368/36
f 690/369/37 692/371/38 691/372/38 689/370/37
f 692/371/38 694/373/39 693/374/39 691/372/38
f 694/373/39 696/375/40 695/376/40 693/374/39
f 696/375/40 698/377/41 697/378/41 695/376/40
f 698/377/41 700/379/42 699/380/42 697/378/41
f 700/379/42 702/381/43 701/382/43 699/380/42
f 702/381/43 704/383/44 703/384/44 701/382/43
f 704/383/44 706/385/45 705/386/45 703/384/44
f 706/385/45 708/387/46 707/388/46 705/386/45
f 708/387/46 710/389/47 709/390/47 707/388/46
f 710/389/47 712/391/48 711/392/48 709/390/47
f 712/391/48 714/393/49 713/394/49 711/392/48
f 714/393/49 716/395/50 715/396/50 713/394/49
f 716/395/50 718/397/51 717/398/51 715/396/50
f 718/397/51 720/399/52 719/400/52 717/398/51
f 720/399/52 722/401/53 721/402/53 719/400/52
f 722/401/53 724/403/54 723/404/54 721/402/53
f 724/403/54 726/405/55 725/406/55 723/404/54
f 726/405/55 728/407/56 727/408/56 725/406/55
f 728/407/56 730/409/57 729/410/57 727/408/56
f 730/409/57 732/411/58 731/412/58 729/410/57
f 732/411/58 734/413/59 733/414/59 731/412/58
f 734/413/59 736/415/60 735/416/60 733/414/59
f 736/415/60 738/417/61 737/418/61 735/416/60
f 738/417/61 740/419/62 739/420/62 737/418/61
f 740/419/62 742/421/63 741/422/63 739/420/62
f 742/421/63 622/423/3 621/2/3 741/422/63
f 744/302/64 746/424/65 745/425/65 743/6/64
f 746/424/65 748/426/66 747/427/66 745/425/65
f 748/426/66 750/428/67 749/429/67 747/427/66
f 750/428/67 752/430/68 751/431/68 749/429/67
f 752/430/68 754/432/69 753/433/69 751/431/68
f 754/432/69 756/434/70 755/435/70 753/433/69
f 756/434/70 758/436/71 757/437/71 755/435/70
f 758/436/71 760/438/72 759/439/72 757/437/71
f 760/438/72 762/440/73 761/441/73 759/439/72
f 762/440/73 764/442/74 763/443/74 761/441/73
f 764/442/74 766/444/75 765/445/75 763/443/74
f 766/444/75 768/446/76 767/447/76 765/445/75
f 768/446/76 770/448/77 769/449/77 767/447/76
f 770/448/77 772/450/78 771/451/78 769/449/77
f 772/450/78 774/452/79 773/453/79 771/451/78
f 774/452/79 776/454/80 775/455/80 773/453/79
f 776/454/80 778/456/81 777/457/81 775/455/80
f 778/456/81 780/458/82 779/459/82 777/457/81
f 780/458/82 782/460/83 781/461/83 779/459/82
f 782/460/83 784/462/84 783/463/84 781/461/83
f 784/462/84 786/464/85 785/465/85 783/463/84
f 786/464/85 788/466/86 787/467/86 785/465/85
f 788/466/86 790/468/87 789/469/87 787/467/86
f 790/468/87 792/470/88 791/471/88 789/469/87
f 792/470/88 794/472/89 793/473/89 791/471/88
f 794/472/89 796/474/90 795/475/90 793/473/89
f 796/474/90 798/476/91 797/477/91 795/475/90
f 798/476/91 800/478/92 799/479/92 797/477/91
f 800/478/92 802/480/93 801/481/93 799/479/92
f 802/480/93 804/482/94 803/483/94 801/481/93
f 804/482/94 806/484/95 805/485/95 803/483/94
f 806/484/95 808/486/96 807/487/96 805/485/95
f 808/486/96 810/488/97 809/489/97 807/487/96
f 810/488/97 812/490/98 811/491/98 809/489/97
f 812/490/98 814/492/99 813/493/99 811/491/98
f 814/492/99 816/494/100 815/495/100 813/493/99
f 816/494/100 818/496/101 817/497/101 815/495/100
f 818/496/101 820/498/102 819/499/102 817/497/101
f 820/498/102 822/500/103 821/501/103 819/499/102
f 822/500/103 824/502/104 823/503/104 821/501/103
f 824/502/104 826/504/105 825/505/105 823/503/104
f 826/504/105 828/506/106 827/507/106 825/505/105
f 828/506/106 830/508/107 829/107/107 827/507/106
f 830/508/107 832/509/108 831/510/108 829/107/107
f 832/509/108 834/511/109 833/512/109 831/510/108
f 834/511/109 836/513/110 835/514/110 833/512/109
f 836/513/110 838/515/111 837/516/111 835/514/110
f 838/515/111 840/517/112 839/518/112 837/516/111
f 840/517/112 842/519/113 841/520/113 839/518/112
f 842/519/113 844/521/114 843/522/114 841/520/113
f 844/521/114 846/523/115 845/524/115 843/522/114
f 846/523/115 848/525/116 847/526/116 845/524/115
f 848/525/116 850/527/117 849/528/117 847/526/116
f 850/527/117 852/529/118 851/530/118 849/528/117
f 852/529/118 854/531/119 853/532/119 851/530/118
f 854/531/119 856/533/120 855/534/120 853/532/119
f 856/533/120 858/535/121 857/536/121 855/534/120
f 858/535/121 860/537/122 859/538/122 857/536/121
f 860/537/122 862/539/123 861/540/123 859/538/122
f 862/539/123 864/541/124 863/542/124 861/540/123
f 864/541/124 866/543/125 865/544/125 863/542/124
f 866/543/125 868/545/126 867/546/126 865/544/125
f 868/545/126 870/547/127 869/548/127 867/546/126
f 870/547/127 872/549/128 871/550/128 869/548/127
f 872/549/128 874/551/129 873/552/129 871/550/128
f 874/551/129 876/553/130 875/554/130 873/552/129
f 876/553/130 878/555/131 877/556/131 875/554/130
f 878/555/131 880/557/132 879/558/132 877/556/131
f 880/557/132 882/559/133 881/560/133 879/558/132
f 882/559/133 884/561/134 883/562/134 881/560/133
f 884/561/134 886/563/135 885/564/135 883/562/134
f 886/563/135 888/565/136 887/566/136 885/564/135
f 888/565/136 890/567/137 889/568/137 887/566/136
f 890/567/137 892/569/138 891/570/138 889/568/137
f 892/569/138 894/571/139 893/572/139 891/570/138
f 894/571/139 896/573/140 895/574/140 893/572/139
f 896/573/140 898/575/141 897/576/141 895/574/140
f 898/575/141 900/577/142 899/578/142 897/576/141
f 900/577/142 902/579/143 901/580/143 899/578/142
f 902/579/143 904/581/144 903/582/144 901/580/143
f 904/581/144 906/583/145 905/584/145 903/582/144
f 906/583/145 908/585/146 907/586/146 905/584/145
f 908/585/146 910/587/147 909/588/147 907/586/146
f 910/587/147 912/589/148 911/590/148 909/588/147
f 912/589/148 914/591/149 913/592/149 911/590/148
f 914/591/149 744/423/64 743/2/64 913/592/149
f 916/302/150 918/593/151 917/594/151 915/6/150
f 918/593/151 920/595/152 919/596/152 917/594/151
f 920/595/152 922/597/153 921/598/153 919/596/152
f 922/597/153 924/599/154 923/600/154 921/598/153
f 924/599/154 926/601/155 925/602/155 923/600/154
f 926/601/155 928/603/156 927/604/156 925/602/155
f 928/603/156 930/605/157 929/606/157 927/604/156
f 930/605/157 932/607/158 931/608/158 929/606/157
f 932/607/158 934/609/159 933/610/159 931/608/158
f 934/609/159 936/611/160 935/612/160 933/610/159
f 936/611/160 938/613/161 937/614/161 935/612/160
f 938/613/161 940/615/162 939/616/162 937/614/161
f 940/615/162 942/617/163 941/618/163 939/616/162
f 942/617/163 944/619/164 943/620/164 941/618/163
f 944/619/164 946/621/165 945/622/165 943/620/164
f 946/621/165 948/623/166 947/624/166 945/622/165
f 948/623/166 950/625/167 949/626/167 947/624/166
f 950/625/167 952/627/168 951/628/168 949/626/167
f 952/627/168 954/629/169 953/630/169 951/628/168
f 954/629/169 956/631/170 955/632/170 953/630/169
f 956/631/170 958/633/171 957/634/171 955/632/170
f 958/633/171 960/635/172 959/636/172 957/634/171
f 960/635/172 962/637/173 961/638/173 959/636/172
f 962/637/173 964/639/174 963/640/174 961/638/173
f 964/639/174 966/641/175 965/642/175 963/640/174
f 966/641/175 968/643/175 967/644/175 965/642/175
f 968/643/175 970/645/176 969/646/176 967/644/175
f 970/645/176 972/647/177 971/648/177 969/646/176
f 972/647/177 974/649/178 973/650/178 971/648/177
f 974/649/178 976/651/179 975/29/179 973/650/178
f 976/651/179 978/652/180 977/653/180 975/29/179
f 978/652/180 980/654/181 979/655/181 977/653/180
f 980/654/181 982/656/182 981/657/182 979/655/181
f 982/656/182 984/658/183 983/659/183 981/657/182
f 984/658/183 986/660/184 985/661/184 983/659/183
f 986/660/184 988/662/185 987/663/185 985/661/184
f 988/662/185 990/664/186 989/665/186 987/663/185
f 990/664/186 992/666/187 991/667/187 989/665/186
f 992/666/187 994/668/188 993/669/188 991/667/187
f 994/668/188 996/670/189 995/671/189 993/669/188
f 996/670/189 998/672/190 997/673/190 995/671/189
f 998/672/190 1000/674/191 999/675/191 997/673/190
f 1000/674/191 1002/676/192 1001/677/192 999/675/191
f 1002/676/192 1004/678/193 1003/679/193 1001/677/192
f 1004/678/193 1006/508/194 1005/107/194 1003/679/193
f 1006/508/194 1008/680/195 1007/681/195 1005/107/194
f 1008/680/195 1010/682/196 1009/683/196 1007/681/195
f 1010/682/196 1012/684/197 1011/685/197 1009/683/196
f 1012/684/197 1014/686/198 1013/687/198 1011/685/197
f 1014/686/198 1016/688/199 1015/689/199 1013/687/198
f 1016/688/199 1018/690/200 1017/691/200 1015/689/199
f 1018/690/200 1020/692/201 1019/693/201 1017/691/200
f 1020/692/201 1022/694/202 1021/695/202 1019/693/201
f 1022/694/202 1024/696/203 1023/697/203 1021/695/202
f 1024/696/203 1026/698/204 1025/699/204 1023/697/203
f 1026/698/204 1028/700/205 1027/701/205 1025/699/204
f 1028/700/205 1030/702/206 1029/703/206 1027/701/205
f 1030/702/206 1032/704/207 1031/705/207 1029/703/206
f 1032/704/207 1034/706/208 1033/707/208 1031/705/207
f 1034/706/208 1036/708/209 1035/30/209 1033/707/208
f 1036/708/209 1038/709/210 1037/710/210 1035/30/209
f 1038/709/210 1040/711/211 1039/712/211 1037/710/210
f 1040/711/211 1042/713/212 1041/714/212 1039/712/211
f 1042/713/212 1044/715/213 1043/716/213 1041/714/212
f 1044/715/213 1046/717/214 1045/718/214 1043/716/213
f 1046/717/214 1048/719/215 1047/720/215 1045/718/214
f 1048/719/215 1050/721/216 1049/722/216 1047/720/215
f 1050/721/216 1052/723/217 1051/724/217 1049/722/216
f 1052/723/217 1054/725/218 1053/726/218 1051/724/217
f 1054/725/218 1056/727/219 1055/728/219 1053/726/218
f 1056/727/219 1058/729/220 1057/730/220 1055/728/219
f 1058/729/220 1060/731/221 1059/732/221 1057/730/220
f 1060/731/221 1062/733/222 1061/734/222 1059/732/221
f 1062/733/222 1064/735/223 1063/736/223 1061/734/222
f 1064/735/223 1066/737/224 1065/738/224 1063/736/223
f 1066/737/224 1068/739/225 1067/740/225 1065/738/224
f 1068/739/225 1070/741/220 1069/742/220 1067/740/225
f 1070/741/220 1072/743/226 1071/744/226 1069/742/220
f 1072/743/226 1074/745/227 1073/746/227 1071/744/226
f 1074/745/227 1076/747/228 1075/748/228 1073/746/227
f 1076/747/228 1078/749/229 1077/750/229 1075/748/228
f 1078/749/229 1080/751/230 1079/752/230 1077/750/229
f 1080/751/230 1082/753/231 1081/754/231 1079/752/230
f 1082/753/231 1084/755/232 1083/756/232 1081/754/231
f 1084/755/232 1086/757/233 1085/758/233 1083/756/232
f 1086/757/233 1088/759/234 1087/760/234 1085/758/233
f 1088/759/234 1090/761/235 1089/762/235 1087/760/234
f 1090/761/235 1092/763/236 1091/764/236 1089/762/235
f 1092/763/236 1094/765/237 1093/766/237 1091/764/236
f 1094/765/237 916/423/150 915/2/150 1093/766/237
f 1096/302/238 1098/767/239 1097/768/239 1095/6/238
f 1098/767/239 1100/769/240 1099/770/240 1097/768/239
f 1100/769/240 1102/771/241 1101/772/241 1099/770/240
f 1102/771/241 1104/773/242 1103/774/242 1101/772/241
f 1104/773/242 1106/775/243 1105/776/243 1103/774/242
f 1106/775/243 1108/777/244 1107/778/244 1105/776/243
f 1108/777/244 1110/779/245 1109/780/245 1107/778/244
f 1110/779/245 1112/781/246 1111/782/246 1109/780/245
f 1112/781/246 1114/783/247 1113/784/247 1111/782/246
f 1114/783/247 1116/785/248 1115/786/248 1113/784/247
f 1116/785/248 1118/787/249 1117/788/249 1115/786/248
f 1118/787/249 1120/789/250 1119/790/250 1117/788/249
f 1120/789/250 1122/651/251 1121/29/251 1119/790/250
f 1122/651/251 1124/791/252 1123/792/252 1121/29/251
f 1124/791/252 1126/793/253 1125/794/253 1123/792/252
f 1126/793/253 1128/795/254 1127/796/254 1125/794/253
f 1128/795/254 1130/797/255 1129/798/255 1127/796/254
f 1130/797/255 1132/799/256 1131/800/256 1129/798/255
f 1132/799/256 1134/801/257 1133/802/257 1131/800/256
f 1134/801/257 1136/803/258 1135/804/258 1133/802/257
f 1136/803/258 1138/805/259 1137/806/259 1135/804/258
f 1138/805/259 1140/807/260 1139/808/260 1137/806/259
f 1140/807/260 1142/809/261 1141/810/261 1139/808/260
f 1142/809/261 1144/811/175 1143/812/175 1141/810/261
f 1144/811/175 1146/813/262 1145/814/262 1143/812/175
f 1146/813/262 1148/708/263 1147/30/263 1145/814/262
f 1148/708/263 1150/815/264 1149/816/264 1147/30/263
f 1150/815/264 1152/817/265 1151/818/265 1149/816/264
f 1152/817/265 1154/819/266 1153/820/266 1151/818/265
f 1154/819/266 1156/821/267 1155/822/267 1153/820/266
f 1156/821/267 1158/823/268 1157/824/268 1155/822/267
f 1158/823/268 1160/825/269 1159/826/269 1157/824/268
f 1160/825/269 1162/827/270 1161/828/270 1159/826/269
f 1162/827/270 1164/829/271 1163/830/271 1161/828/270
f 1164/829/271 1166/831/272 1165/832/272 1163/830/271
f 1166/831/272 1168/833/273 1167/834/273 1165/832/272
f 1168/833/273 1170/835/274 1169/836/274 1167/834/273
f 1170/835/274 1172/837/275 1171/838/275 1169/836/274
f 1172/837/275 1096/423/238 1095/2/238 1171/838/275
f 1174/302/175 1176/839/176 1175/37/176 1173/6/175
f 1176/839/176 1178/508/177 1177/107/177 1175/37/176
f 1178/508/177 1180/840/262 1179/79/262 1177/107/177
f 1180/840/262 1174/423/175 1173/2/175 1179/79/262
f 1182/302/276 1184/601/277 1183/602/277 1181/6/276
f 1184/601/277 1186/611/278 1185/612/278 1183/602/277
f 1186/611/278 1188/621/279 1187/622/279 1185/612/278
f 1188/621/279 1190/631/280 1189/632/280 1187/622/279
f 1190/631/280 1192/641/281 1191/642/281 1189/632/280
f 1192/641/281 1194/651/282 1193/29/282 1191/642/281
f 1194/651/282 1196/660/283 1195/661/283 1193/29/282
f 1196/660/283 1198/670/135 1197/671/135 1195/661/283
f 1198/670/135 1200/508/284 1199/107/284 1197/671/135
f 1200/508/284 1202/688/285 1201/689/285 1199/107/284
f 1202/688/285 1204/698/286 1203/699/286 1201/689/285
f 1204/698/286 1206/708/287 1205/30/287 1203/699/286
f 1206/708/287 1208/717/288 1207/718/288 1205/30/287
f 1208/717/288 1210/727/289 1209/728/289 1207/718/288
f 1210/727/289 1212/737/290 1211/738/290 1209/728/289
f 1212/737/290 1214/747/291 1213/748/291 1211/738/290
f 1214/747/291 1216/757/292 1215/758/292 1213/748/291
f 1216/757/292 1182/423/276 1181/2/276 1215/758/292
f 1218/302/262 1220/841/262 1219/842/262 1217/6/262
f 1220/841/262 1222/621/175 1221/622/175 1219/842/262
f 1222/621/175 1224/839/175 1223/37/175 1221/622/175
f 1224/839/175 1226/651/262 1225/29/262 1223/37/175
f 1226/651/262 1228/843/262 1227/844/262 1225/29/262
f 1228/843/262 1230/508/175 1229/107/175 1227/844/262
f 1230/508/175 1232/845/176 1231/846/176 1229/107/175
f 1232/845/176 1234/708/177 1233/30/177 1231/846/176
f 1234/708/177 1236/840/262 1235/79/262 1233/30/177
f 1236/840/262 1238/737/175 1237/738/175 1235/79/262
f 1238/737/175 1240/847/175 1239/848/175 1237/738/175
f 1240/847/175 1218/423/262 1217/2/262 1239/848/175
